{
    "asset" : {
        "generator" : "Khronos glTF Blender I/O v3.4.50",
        "version" : "2.0"
    },
    "extensionsUsed" : [
        "KHR_materials_specular",
        "KHR_materials_ior"
    ],
    "scene" : 0,
    "scenes" : [
        {
            "name" : "Scene",
            "nodes" : [
                0,
                1
            ]
        }
    ],
    "nodes" : [
        {
            "mesh" : 0,
            "name" : "Plane.001",
            "rotation" : [
                0,
                0,
                -0.7071068286895752,
                0.7071068286895752
            ],
            "scale" : [
                1.6655890941619873,
                1.6655890941619873,
                1.6655890941619873
            ],
            "translation" : [
                -1.842681646347046,
                3.427741765975952,
                -4.126461982727051
            ]
        },
        {
            "name" : "BezierCurve"
        }
    ],
    "materials" : [
        {
            "doubleSided" : true,
            "extensions" : {
                "KHR_materials_specular" : {
                    "specularColorFactor" : [
                        0,
                        0,
                        0
                    ]
                },
                "KHR_materials_ior" : {
                    "ior" : 1.4500000476837158
                }
            },
            "name" : "3.006",
            "pbrMetallicRoughness" : {
                "baseColorFactor" : [
                    0.29958683252334595,
                    0.0490756556391716,
                    1,
                    1
                ],
                "roughnessFactor" : 0.550000011920929
            }
        },
        {
            "doubleSided" : true,
            "extensions" : {
                "KHR_materials_specular" : {
                    "specularColorFactor" : [
                        0,
                        0,
                        0
                    ]
                },
                "KHR_materials_ior" : {
                    "ior" : 1.4500000476837158
                }
            },
            "name" : "3.007",
            "pbrMetallicRoughness" : {
                "baseColorFactor" : [
                    1,
                    0.015835097059607506,
                    0.1630026251077652,
                    1
                ],
                "roughnessFactor" : 0.550000011920929
            }
        },
        {
            "doubleSided" : true,
            "extensions" : {
                "KHR_materials_specular" : {
                    "specularColorFactor" : [
                        0,
                        0,
                        0
                    ]
                },
                "KHR_materials_ior" : {
                    "ior" : 1.4500000476837158
                }
            },
            "name" : "3.008",
            "pbrMetallicRoughness" : {
                "baseColorFactor" : [
                    0,
                    0.5593488216400146,
                    1,
                    1
                ],
                "roughnessFactor" : 0.550000011920929
            }
        }
    ],
    "meshes" : [
        {
            "name" : "Plane.001",
            "primitives" : [
                {
                    "attributes" : {
                        "POSITION" : 0,
                        "TEXCOORD_0" : 1,
                        "NORMAL" : 2
                    },
                    "indices" : 3,
                    "material" : 0
                },
                {
                    "attributes" : {
                        "POSITION" : 4,
                        "TEXCOORD_0" : 5,
                        "NORMAL" : 6
                    },
                    "indices" : 7,
                    "material" : 1
                },
                {
                    "attributes" : {
                        "POSITION" : 8,
                        "TEXCOORD_0" : 9,
                        "NORMAL" : 10
                    },
                    "indices" : 11,
                    "material" : 2
                }
            ]
        }
    ],
    "accessors" : [
        {
            "bufferView" : 0,
            "componentType" : 5126,
            "count" : 290,
            "max" : [
                0.869840145111084,
                0.3401273787021637,
                0.636260986328125
            ],
            "min" : [
                -0.9067679047584534,
                -0.01834028959274292,
                -0.9261302947998047
            ],
            "type" : "VEC3"
        },
        {
            "bufferView" : 1,
            "componentType" : 5126,
            "count" : 290,
            "type" : "VEC2"
        },
        {
            "bufferView" : 2,
            "componentType" : 5126,
            "count" : 290,
            "type" : "VEC3"
        },
        {
            "bufferView" : 3,
            "componentType" : 5123,
            "count" : 1668,
            "type" : "SCALAR"
        },
        {
            "bufferView" : 4,
            "componentType" : 5126,
            "count" : 6480,
            "max" : [
                4.147598743438721,
                0.32806944847106934,
                0.6400995254516602
            ],
            "min" : [
                2.3084917068481445,
                0.02476065419614315,
                -0.7936019897460938
            ],
            "type" : "VEC3"
        },
        {
            "bufferView" : 5,
            "componentType" : 5126,
            "count" : 6480,
            "type" : "VEC2"
        },
        {
            "bufferView" : 6,
            "componentType" : 5126,
            "count" : 6480,
            "type" : "VEC3"
        },
        {
            "bufferView" : 7,
            "componentType" : 5123,
            "count" : 10068,
            "type" : "SCALAR"
        },
        {
            "bufferView" : 8,
            "componentType" : 5126,
            "count" : 479,
            "max" : [
                3.1634976863861084,
                0.4812833070755005,
                1.3530341386795044
            ],
            "min" : [
                0.5377610325813293,
                -4.739266756814686e-08,
                -1.0107117891311646
            ],
            "type" : "VEC3"
        },
        {
            "bufferView" : 9,
            "componentType" : 5126,
            "count" : 479,
            "type" : "VEC2"
        },
        {
            "bufferView" : 10,
            "componentType" : 5126,
            "count" : 479,
            "type" : "VEC3"
        },
        {
            "bufferView" : 11,
            "componentType" : 5123,
            "count" : 2448,
            "type" : "SCALAR"
        }
    ],
    "bufferViews" : [
        {
            "buffer" : 0,
            "byteLength" : 3480,
            "byteOffset" : 0,
            "target" : 34962
        },
        {
            "buffer" : 0,
            "byteLength" : 2320,
            "byteOffset" : 3480,
            "target" : 34962
        },
        {
            "buffer" : 0,
            "byteLength" : 3480,
            "byteOffset" : 5800,
            "target" : 34962
        },
        {
            "buffer" : 0,
            "byteLength" : 3336,
            "byteOffset" : 9280,
            "target" : 34963
        },
        {
            "buffer" : 0,
            "byteLength" : 77760,
            "byteOffset" : 12616,
            "target" : 34962
        },
        {
            "buffer" : 0,
            "byteLength" : 51840,
            "byteOffset" : 90376,
            "target" : 34962
        },
        {
            "buffer" : 0,
            "byteLength" : 77760,
            "byteOffset" : 142216,
            "target" : 34962
        },
        {
            "buffer" : 0,
            "byteLength" : 20136,
            "byteOffset" : 219976,
            "target" : 34963
        },
        {
            "buffer" : 0,
            "byteLength" : 5748,
            "byteOffset" : 240112,
            "target" : 34962
        },
        {
            "buffer" : 0,
            "byteLength" : 3832,
            "byteOffset" : 245860,
            "target" : 34962
        },
        {
            "buffer" : 0,
            "byteLength" : 5748,
            "byteOffset" : 249692,
            "target" : 34962
        },
        {
            "buffer" : 0,
            "byteLength" : 4896,
            "byteOffset" : 255440,
            "target" : 34963
        }
    ],
    "buffers" : [
        {
            "byteLength" : 260336,
            "uri" : "data:application/octet-stream;base64,"
        }
    ]
}
