{
    "asset" : {
        "generator" : "Khronos glTF Blender I/O v3.2.43",
        "version" : "2.0"
    },
    "scene" : 0,
    "scenes" : [
        {
            "name" : "Scene",
            "nodes" : [
                0
            ]
        }
    ],
    "nodes" : [
        {
            "mesh" : 0,
            "name" : "Plane.003",
            "rotation" : [
                0,
                0,
                -0.7071067094802856,
                0.7071068286895752
            ],
            "scale" : [
                1.6655890941619873,
                1.6655890941619873,
                1.6655890941619873
            ],
            "translation" : [
                0,
                2.6447293758392334,
                1.3809189796447754
            ]
        }
    ],
    "materials" : [
        {
            "doubleSided" : true,
            "name" : "2.002",
            "pbrMetallicRoughness" : {
                "roughnessFactor" : 0.75
            }
        },
        {
            "doubleSided" : true,
            "name" : "2.001",
            "pbrMetallicRoughness" : {
                "roughnessFactor" : 0.75
            }
        },
        {
            "doubleSided" : true,
            "name" : "2",
            "pbrMetallicRoughness" : {
                "roughnessFactor" : 0.6000000238418579
            }
        }
    ],
    "meshes" : [
        {
            "name" : "Plane.003",
            "primitives" : [
                {
                    "attributes" : {
                        "POSITION" : 0,
                        "NORMAL" : 1,
                        "TEXCOORD_0" : 2
                    },
                    "indices" : 3,
                    "material" : 0
                },
                {
                    "attributes" : {
                        "POSITION" : 4,
                        "NORMAL" : 5,
                        "TEXCOORD_0" : 6
                    },
                    "indices" : 7,
                    "material" : 1
                },
                {
                    "attributes" : {
                        "POSITION" : 8,
                        "NORMAL" : 9,
                        "TEXCOORD_0" : 10
                    },
                    "indices" : 11,
                    "material" : 2
                }
            ]
        }
    ],
    "accessors" : [
        {
            "bufferView" : 0,
            "componentType" : 5126,
            "count" : 290,
            "max" : [
                0.869840145111084,
                0.3401273787021637,
                0.636260986328125
            ],
            "min" : [
                -0.9067679047584534,
                -0.01834028959274292,
                -0.9261302947998047
            ],
            "type" : "VEC3"
        },
        {
            "bufferView" : 1,
            "componentType" : 5126,
            "count" : 290,
            "type" : "VEC3"
        },
        {
            "bufferView" : 2,
            "componentType" : 5126,
            "count" : 290,
            "type" : "VEC2"
        },
        {
            "bufferView" : 3,
            "componentType" : 5123,
            "count" : 1668,
            "type" : "SCALAR"
        },
        {
            "bufferView" : 4,
            "componentType" : 5126,
            "count" : 838,
            "max" : [
                4.182642936706543,
                0.3189457356929779,
                0.6519219279289246
            ],
            "min" : [
                2.339581251144409,
                -3.1426355917574256e-07,
                -0.7829216122627258
            ],
            "type" : "VEC3"
        },
        {
            "bufferView" : 5,
            "componentType" : 5126,
            "count" : 838,
            "type" : "VEC3"
        },
        {
            "bufferView" : 6,
            "componentType" : 5126,
            "count" : 838,
            "type" : "VEC2"
        },
        {
            "bufferView" : 7,
            "componentType" : 5123,
            "count" : 1254,
            "type" : "SCALAR"
        },
        {
            "bufferView" : 8,
            "componentType" : 5126,
            "count" : 479,
            "max" : [
                3.1634976863861084,
                0.4812833070755005,
                1.3530339002609253
            ],
            "min" : [
                0.5377610325813293,
                -4.739266756814686e-08,
                -1.0107120275497437
            ],
            "type" : "VEC3"
        },
        {
            "bufferView" : 9,
            "componentType" : 5126,
            "count" : 479,
            "type" : "VEC3"
        },
        {
            "bufferView" : 10,
            "componentType" : 5126,
            "count" : 479,
            "type" : "VEC2"
        },
        {
            "bufferView" : 11,
            "componentType" : 5123,
            "count" : 2448,
            "type" : "SCALAR"
        }
    ],
    "bufferViews" : [
        {
            "buffer" : 0,
            "byteLength" : 3480,
            "byteOffset" : 0
        },
        {
            "buffer" : 0,
            "byteLength" : 3480,
            "byteOffset" : 3480
        },
        {
            "buffer" : 0,
            "byteLength" : 2320,
            "byteOffset" : 6960
        },
        {
            "buffer" : 0,
            "byteLength" : 3336,
            "byteOffset" : 9280
        },
        {
            "buffer" : 0,
            "byteLength" : 10056,
            "byteOffset" : 12616
        },
        {
            "buffer" : 0,
            "byteLength" : 10056,
            "byteOffset" : 22672
        },
        {
            "buffer" : 0,
            "byteLength" : 6704,
            "byteOffset" : 32728
        },
        {
            "buffer" : 0,
            "byteLength" : 2508,
            "byteOffset" : 39432
        },
        {
            "buffer" : 0,
            "byteLength" : 5748,
            "byteOffset" : 41940
        },
        {
            "buffer" : 0,
            "byteLength" : 5748,
            "byteOffset" : 47688
        },
        {
            "buffer" : 0,
            "byteLength" : 3832,
            "byteOffset" : 53436
        },
        {
            "buffer" : 0,
            "byteLength" : 4896,
            "byteOffset" : 57268
        }
    ],
    "buffers" : [
        {
            "byteLength" : 62164,
            "uri" : "data:application/octet-stream;base64,"
        }
    ]
}
