{
  "asset": {
    "version": "2.0",
    "generator": "THREE.GLTFExporter"
  },
  "scenes": [
    {
      "name": "AuxScene",
      "nodes": [
        9
      ]
    }
  ],
  "scene": 0,
  "nodes": [
    {
      "mesh": 0
    },
    {
      "children": [
        0
      ]
    },
    {
      "children": [
        1
      ]
    },
    {
      "mesh": 1
    },
    {
      "children": [
        3
      ]
    },
    {
      "matrix": [
        1,
        0,
        0,
        0,
        0,
        1,
        0,
        0,
        0,
        0,
        1,
        0,
        0,
        0,
        -0.07937188518863487,
        1
      ],
      "children": [
        4
      ]
    },
    {
      "mesh": 2
    },
    {
      "children": [
        6
      ]
    },
    {
      "matrix": [
        1,
        0,
        0,
        0,
        0,
        1,
        0,
        0,
        0,
        0,
        1,
        0,
        0,
        0,
        -0.053091937488492266,
        1
      ],
      "children": [
        7
      ]
    },
    {
      "matrix": [
        0.0499106754983967,
        0,
        0,
        0,
        0,
        -0.0499106754983967,
        0,
        0,
        0,
        0,
        0.0499106754983967,
        0,
        -2.0962707369380373,
        4.52198410456904,
        0,
        1
      ],
      "extras": {
        "svgImageTarget": {
          "width": 236,
          "height": 512,
          "depth": 1,
          "scissor": {
            "x": 0,
            "y": 0,
            "z": 236,
            "w": 512
          },
          "scissorTest": false,
          "viewport": {
            "x": 0,
            "y": 0,
            "z": 236,
            "w": 512
          },
          "texture": {
            "metadata": {
              "version": 4.5,
              "type": "Texture",
              "generator": "Texture.toJSON"
            },
            "uuid": "1EE6AC81-801B-4FAE-A5D3-00BC4E492AB5",
            "name": "",
            "mapping": 300,
            "repeat": [
              1,
              1
            ],
            "offset": [
              0,
              0
            ],
            "center": [
              0,
              0
            ],
            "rotation": 0,
            "wrap": [
              1001,
              1001
            ],
            "format": 1023,
            "type": 1009,
            "encoding": 3000,
            "minFilter": 1003,
            "magFilter": 1006,
            "anisotropy": 1,
            "flipY": true,
            "premultiplyAlpha": false,
            "unpackAlignment": 4,
            "image": "B497045D-9660-4916-8D24-B52D1EEAA234"
          },
          "depthBuffer": false,
          "stencilBuffer": false,
          "depthTexture": null,
          "_listeners": {
            "dispose": [
              null
            ]
          }
        }
      },
      "children": [
        2,
        5,
        8
      ]
    }
  ],
  "bufferViews": [
    {
      "buffer": 0,
      "byteOffset": 0,
      "byteLength": 13536,
      "target": 34962,
      "byteStride": 12
    },
    {
      "buffer": 0,
      "byteOffset": 13536,
      "byteLength": 9024,
      "target": 34962,
      "byteStride": 8
    },
    {
      "buffer": 0,
      "byteOffset": 22560,
      "byteLength": 13536,
      "target": 34962,
      "byteStride": 12
    },
    {
      "buffer": 0,
      "byteOffset": 36096,
      "byteLength": 17856,
      "target": 34962,
      "byteStride": 12
    },
    {
      "buffer": 0,
      "byteOffset": 53952,
      "byteLength": 11904,
      "target": 34962,
      "byteStride": 8
    },
    {
      "buffer": 0,
      "byteOffset": 65856,
      "byteLength": 17856,
      "target": 34962,
      "byteStride": 12
    },
    {
      "buffer": 0,
      "byteOffset": 83712,
      "byteLength": 21816,
      "target": 34962,
      "byteStride": 12
    },
    {
      "buffer": 0,
      "byteOffset": 105528,
      "byteLength": 14544,
      "target": 34962,
      "byteStride": 8
    },
    {
      "buffer": 0,
      "byteOffset": 120072,
      "byteLength": 21816,
      "target": 34962,
      "byteStride": 12
    }
  ],
  "buffers": [
    {
      "byteLength": 141888,
      "uri": "data:application/octet-stream;base64,"
    }
  ],
  "accessors": [
    {
      "bufferView": 0,
      "componentType": 5126,
      "count": 1128,
      "max": [
        83.55349731445312,
        181.2030792236328,
        13.539823532104492
      ],
      "min": [
        25.215999603271484,
        91.83300018310547,
        0
      ],
      "type": "VEC3"
    },
    {
      "bufferView": 1,
      "componentType": 5126,
      "count": 1128,
      "max": [
        0.9888653755187988,
        0.4932399094104767
      ],
      "min": [
        0.30258673429489136,
        0.0027511033695191145
      ],
      "type": "VEC2"
    },
    {
      "bufferView": 2,
      "componentType": 5126,
      "count": 1128,
      "max": [
        0.9999984502792358,
        0.9989376068115234,
        1
      ],
      "min": [
        -1,
        -0.9284766912460327,
        -1
      ],
      "type": "VEC3"
    },
    {
      "bufferView": 3,
      "componentType": 5126,
      "count": 1488,
      "max": [
        84,
        144.7030029296875,
        15.902787208557129
      ],
      "min": [
        0.0008962413412518799,
        51.201114654541016,
        0
      ],
      "type": "VEC3"
    },
    {
      "bufferView": 4,
      "componentType": 5126,
      "count": 1488,
      "max": [
        0.9941180348396301,
        0.7162394523620605
      ],
      "min": [
        0.005957845598459244,
        0.20307406783103943
      ],
      "type": "VEC2"
    },
    {
      "bufferView": 5,
      "componentType": 5126,
      "count": 1488,
      "max": [
        1,
        0.8945858478546143,
        1
      ],
      "min": [
        -0.9910309314727783,
        -0.9998345971107483,
        -1
      ],
      "type": "VEC3"
    },
    {
      "bufferView": 6,
      "componentType": 5126,
      "count": 1818,
      "max": [
        81.02982330322266,
        62.68281173706055,
        10.637391090393066
      ],
      "min": [
        25.590900421142578,
        0.0000024583332560723647,
        0
      ],
      "type": "VEC3"
    },
    {
      "bufferView": 7,
      "componentType": 5126,
      "count": 1818,
      "max": [
        0.9591770768165588,
        0.9972459077835083
      ],
      "min": [
        0.30699706077575684,
        0.6532245874404907
      ],
      "type": "VEC2"
    },
    {
      "bufferView": 8,
      "componentType": 5126,
      "count": 1818,
      "max": [
        0.9935087561607361,
        0.9973210096359253,
        1
      ],
      "min": [
        -1,
        -0.9970180988311768,
        -1
      ],
      "type": "VEC3"
    }
  ],
  "materials": [
    {
      "pbrMetallicRoughness": {
        "baseColorFactor": [
          0.9215686274509803,
          0.050980392156862744,
          0.2901960784313726,
          1
        ],
        "metallicFactor": 0,
        "roughnessFactor": 1
      }
    },
    {
      "pbrMetallicRoughness": {
        "baseColorFactor": [
          0.807843137254902,
          0.19215686274509805,
          0.7803921568627451,
          1
        ],
        "metallicFactor": 0,
        "roughnessFactor": 1
      }
    },
    {
      "pbrMetallicRoughness": {
        "baseColorFactor": [
          0.32941176470588235,
          0.39215686274509803,
          0.9176470588235294,
          1
        ],
        "metallicFactor": 0,
        "roughnessFactor": 1
      }
    }
  ],
  "meshes": [
    {
      "primitives": [
        {
          "mode": 4,
          "attributes": {
            "POSITION": 0,
            "TEXCOORD_0": 1,
            "NORMAL": 2
          },
          "extras": {
            "isUVNormalized": true
          },
          "material": 0
        }
      ]
    },
    {
      "primitives": [
        {
          "mode": 4,
          "attributes": {
            "POSITION": 3,
            "TEXCOORD_0": 4,
            "NORMAL": 5
          },
          "extras": {
            "isUVNormalized": true
          },
          "material": 1
        }
      ]
    },
    {
      "primitives": [
        {
          "mode": 4,
          "attributes": {
            "POSITION": 6,
            "TEXCOORD_0": 7,
            "NORMAL": 8
          },
          "extras": {
            "isUVNormalized": true
          },
          "material": 2
        }
      ]
    }
  ]
}