<svg width="2057" height="2057" viewBox="0 0 2057 2057" fill="none" xmlns="http://www.w3.org/2000/svg">
<g clip-path="url(#clip0_890_555)">
<rect width="2057" height="2057" fill="white"/>
<g clip-path="url(#clip1_890_555)">
<path d="M2467 -14H-410V2200H2467V-14Z" fill="white"/>
<path d="M1315.7 583.648C1314.43 589.592 1313.29 595.747 1310.19 600.74C1304.87 607.172 1299.85 613.802 1295.08 620.611C1298.36 620.378 1301.66 620.223 1305 620.223C1337.83 620.223 1368.37 631.791 1391 652.78C1411.24 671.544 1422.37 695.599 1422.37 720.517C1422.37 745.436 1411.23 769.48 1391 788.255C1368.36 809.254 1337.82 820.811 1305 820.811C1272.18 820.811 1241.8 809.31 1219.18 788.41C1217.53 793.291 1215.89 798.129 1214.25 803C1203.19 808.612 1195.41 821.83 1195.41 837.239C1195.41 857.741 1209.16 874.368 1226.13 874.368C1239.47 874.368 1250.79 864.073 1255.03 849.704C1270.64 854.907 1287.45 857.774 1305 857.774C1386.73 857.774 1452.98 796.314 1452.98 720.506C1452.98 644.699 1392.43 588.729 1315.71 583.637L1315.7 583.648Z" fill="#A55D15"/>
<path d="M652.089 583.648C653.362 589.592 654.501 595.747 657.6 600.74C662.922 607.172 667.946 613.802 672.715 620.611C669.428 620.378 666.131 620.223 662.789 620.223C629.958 620.223 599.418 631.791 576.789 652.78C556.55 671.544 545.408 695.599 545.408 720.517C545.408 745.436 556.55 769.48 576.789 788.255C599.429 809.254 629.969 820.811 662.789 820.811C695.609 820.811 725.995 809.31 748.612 788.41C750.261 793.291 751.899 798.129 753.536 803C764.602 808.612 772.381 821.83 772.381 837.239C772.381 857.741 758.627 874.368 741.663 874.368C728.318 874.368 716.999 864.073 712.749 849.704C697.136 854.907 680.328 857.774 662.778 857.774C581.049 857.774 514.801 796.314 514.801 720.506C514.801 644.699 575.351 588.729 652.067 583.637L652.089 583.648Z" fill="#A55D15"/>
<path d="M1336.99 568.017V605.909C1336.99 777.173 1198.18 916.046 1026.98 916.046C948.132 914.995 894.033 923.153 819.165 889.999C711.299 842.674 633.643 734.244 633.643 605.909V568.017H1337H1336.99Z" fill="#CD7F32"/>
<path d="M819.165 889.999C819.243 890.032 819.32 890.065 819.398 890.099L930.837 568.006H814.828L725.508 826.214C752.485 852.948 784.243 874.667 819.165 889.988V889.999Z" fill="#F3B06E"/>
<path d="M891.666 911.74L1009.26 568.017H950.987L838.209 897.725C856.909 904.611 874.459 908.984 891.677 911.729L891.666 911.74Z" fill="#F3B06E"/>
<path d="M714.21 814.424L802.147 568.017H774.439L694.879 790.966C700.943 799.114 707.394 806.94 714.21 814.424V814.424Z" fill="#F3B06E"/>
<path d="M1306.28 546.541H666.108C642.738 546.541 623.694 559.548 622.355 575.943H1350.04C1348.7 559.548 1329.64 546.541 1306.28 546.541V546.541Z" fill="#CD7F32"/>
<path d="M866.447 906.98L902.675 1093H1061.07L1105.94 906.98H866.447Z" fill="#CD7F32"/>
<path d="M1105.95 906.991L1095.82 948.969H874.647L866.459 906.991H1105.95Z" fill="#E7A15C"/>
<path d="M1105.95 1323.12H866.459L884.418 1230.79L902.654 1137.1H1061.08L1083.68 1230.79L1105.95 1323.12Z" fill="#CD7F32"/>
<path d="M1105.95 1323.12H866.459L884.418 1230.79H1083.68L1105.95 1323.12Z" fill="#E7A15C"/>
<path d="M874.89 1093H1088.85C1098.28 1093 1105.94 1100.66 1105.94 1110.09V1119.99C1105.94 1129.42 1098.28 1137.09 1088.84 1137.09H874.879C865.452 1137.09 857.783 1129.43 857.783 1119.99V1110.08C857.783 1100.65 865.441 1092.99 874.868 1092.99L874.89 1093Z" fill="#F3B06E"/>
<path d="M850.634 1249.8H1113.69C1119.16 1249.8 1123.61 1254.23 1123.61 1259.71V1310.55H840.73V1259.71C840.73 1254.25 845.168 1249.8 850.645 1249.8H850.634Z" fill="#CD7F32"/>
<path d="M1217.08 1346.85V1365.32H747.229V1346.85C747.229 1325.55 760.219 1308.27 776.231 1308.27H1188.07C1204.08 1308.27 1217.08 1325.55 1217.08 1346.85Z" fill="#CD7F32"/>
<path d="M857.861 1308.27L842.989 1365.32H823.381L838.253 1308.27H857.861Z" fill="#F3B06E"/>
<path d="M829.776 1308.27L814.915 1365.32H795.285L810.168 1308.27H829.776Z" fill="#F3B06E"/>
<path d="M882.813 1308.27L867.952 1365.32H848.322L863.205 1308.27H882.813Z" fill="#F3B06E"/>
<path d="M1392.02 1787.48V1805.95H604.707V1787.48C604.707 1766.18 626.473 1748.9 653.295 1748.9H1343.42C1370.24 1748.9 1392.01 1766.18 1392.01 1787.48H1392.02Z" fill="#CD7F32"/>
<path d="M790.064 1748.91L765.156 1805.96H732.303L757.211 1748.91H790.064Z" fill="#F3B06E"/>
<path d="M743.024 1748.91L718.116 1805.96H685.219L710.171 1748.91H743.024Z" fill="#F3B06E"/>
<path d="M831.89 1748.91L806.981 1805.96H774.084L799.036 1748.91H831.89Z" fill="#F3B06E"/>
<path d="M1186.76 871.833V885.781C1186.76 909.936 1167.22 929.486 1143.1 929.486H827.719C803.575 929.486 784.033 909.936 784.033 885.781V871.833H1186.76Z" fill="#CD7F32"/>
<path d="M1282.77 1748.91H690.297L697.523 1365.33H1274.83L1282.77 1748.91Z" fill="url(#paint0_linear_890_555)"/>
<path d="M1141.89 1748.91H831.193L834.989 1365.33H1137.72L1141.89 1748.91Z" fill="url(#paint1_linear_890_555)"/>
<path d="M1081.83 1737.37L1034.86 1660.62L965.814 1718.31L1036.85 1285.55L1152.89 1304.61L1081.83 1737.37Z" fill="#C1660C"/>
<path d="M1296.46 1718.09L1227.28 1660.57L1180.47 1737.42L1108.44 1304.84L1224.41 1285.5L1296.46 1718.09Z" fill="#C1660C"/>
<path d="M1392.02 1385.16C1392.02 1410.16 1369.99 1431.38 1362.66 1453.93C1355.07 1477.31 1360.17 1507.37 1346.02 1526.83C1331.73 1546.49 1301.47 1550.86 1281.82 1565.16C1262.37 1579.32 1248.95 1606.84 1225.58 1614.43C1203.02 1621.76 1176.1 1607.62 1151.11 1607.62C1126.11 1607.62 1099.19 1621.75 1076.64 1614.43C1053.26 1606.84 1039.84 1579.32 1020.39 1565.16C1000.75 1550.86 970.485 1546.48 956.188 1526.83C942.036 1507.37 947.137 1477.31 939.546 1453.93C932.221 1431.37 910.189 1410.16 910.189 1385.16C910.189 1360.16 932.221 1338.94 939.546 1316.39C947.137 1293.01 942.036 1262.95 956.188 1243.49C970.485 1223.84 1000.74 1219.46 1020.39 1205.16C1039.84 1191 1053.26 1163.48 1076.64 1155.89C1099.19 1148.56 1126.11 1162.7 1151.09 1162.7C1176.08 1162.7 1203.01 1148.57 1225.56 1155.9C1248.93 1163.49 1262.36 1191.01 1281.81 1205.17C1301.45 1219.47 1331.71 1223.85 1346.01 1243.5C1360.16 1262.96 1355.06 1293.02 1362.65 1316.4C1369.98 1338.96 1392.01 1360.17 1392.01 1385.17L1392.02 1385.16Z" fill="#9B5612"/>
<path d="M1211.13 1599.05C1203.55 1599.05 1194.75 1597.12 1185.42 1595.07C1174.41 1592.64 1163.01 1590.14 1151.1 1590.14C1139.2 1590.14 1127.8 1592.64 1116.78 1595.07C1107.45 1597.12 1098.64 1599.05 1091.06 1599.05C1087.58 1599.05 1084.64 1598.64 1082.03 1597.8C1072.4 1594.67 1063.77 1584.86 1054.61 1574.47C1047.37 1566.23 1039.88 1557.73 1030.68 1551.03C1021.35 1544.25 1010.86 1539.67 1000.72 1535.26C988.09 1529.77 976.172 1524.58 970.33 1516.55C964.587 1508.66 963.325 1495.77 961.986 1482.12C960.902 1471.05 959.773 1459.61 956.188 1448.54C952.736 1437.9 947.026 1428.27 941.504 1418.95C934.4 1406.96 927.684 1395.62 927.684 1385.16C927.684 1374.7 934.4 1363.37 941.504 1351.39C947.026 1342.06 952.736 1332.43 956.188 1321.8C959.784 1310.71 960.913 1299.27 961.997 1288.2C963.336 1274.56 964.598 1261.66 970.341 1253.78C976.183 1245.76 988.101 1240.56 1000.73 1235.07C1010.87 1230.66 1021.37 1226.1 1030.7 1219.3C1039.9 1212.6 1047.4 1204.09 1054.64 1195.86C1063.79 1185.47 1072.43 1175.65 1082.06 1172.53C1084.65 1171.69 1087.6 1171.28 1091.09 1171.28C1098.67 1171.28 1107.47 1173.21 1116.8 1175.26C1127.82 1177.69 1139.21 1180.19 1151.13 1180.19C1163.04 1180.19 1174.43 1177.69 1185.45 1175.26C1194.78 1173.21 1203.59 1171.28 1211.17 1171.28C1214.65 1171.28 1217.61 1171.69 1220.2 1172.53C1229.83 1175.66 1238.48 1185.48 1247.62 1195.87C1254.86 1204.1 1262.36 1212.61 1271.55 1219.31C1280.88 1226.1 1291.37 1230.67 1301.52 1235.08C1314.14 1240.57 1326.06 1245.77 1331.9 1253.79C1337.64 1261.69 1338.91 1274.57 1340.25 1288.22C1341.33 1299.29 1342.46 1310.74 1346.04 1321.81C1349.5 1332.44 1355.21 1342.09 1360.73 1351.4C1367.83 1363.39 1374.55 1374.72 1374.55 1385.17C1374.55 1395.62 1367.83 1406.96 1360.73 1418.96C1355.21 1428.27 1349.5 1437.91 1346.04 1448.55C1342.45 1459.63 1341.32 1471.07 1340.23 1482.13C1338.9 1495.77 1337.63 1508.67 1331.89 1516.56C1326.05 1524.6 1314.13 1529.78 1301.51 1535.27C1291.36 1539.69 1280.86 1544.25 1271.53 1551.04C1262.33 1557.74 1254.84 1566.25 1247.59 1574.48C1238.44 1584.87 1229.8 1594.69 1220.17 1597.81C1217.59 1598.66 1214.63 1599.07 1211.15 1599.07L1211.13 1599.05Z" fill="#CD7F32"/>
<path d="M1324.91 1409.49C1338.34 1313.46 1271.4 1224.72 1175.41 1211.3C1079.42 1197.87 990.723 1264.83 977.301 1360.86C963.879 1456.89 1030.81 1545.62 1126.8 1559.05C1222.79 1572.48 1311.49 1505.52 1324.91 1409.49Z" fill="#9B5612"/>
<path d="M1151.11 1551.97C1243.2 1551.97 1317.85 1477.29 1317.85 1385.16C1317.85 1293.03 1243.2 1218.35 1151.11 1218.35C1059.02 1218.35 984.361 1293.03 984.361 1385.16C984.361 1477.29 1059.02 1551.97 1151.11 1551.97Z" fill="white"/>
<path d="M1301.57 1400.08C1309.79 1316.96 1249.1 1242.91 1166.02 1234.69C1082.93 1226.46 1008.91 1287.18 1000.69 1370.3C992.472 1453.42 1053.16 1527.47 1136.25 1535.69C1219.34 1543.92 1293.35 1483.2 1301.57 1400.08Z" fill="#CD7F32"/>
<path d="M1405.92 979.511C1405.92 979.511 1372.82 984.614 1348.38 1009C1323.94 1033.39 1309.33 1072.55 1309.33 1072.55L1359.39 1087.16C1359.39 1087.16 1339.38 1040.46 1405.92 979.5V979.511Z" fill="#F3B06E"/>
<path d="M1415.08 1003.53L1411.5 975.326L1386.23 962.297C1383.36 960.814 1383.43 956.673 1386.35 955.29L1412.06 943.157L1416.64 915.094C1417.16 911.895 1421.12 910.689 1423.34 913.047L1442.81 933.758L1470.91 929.452C1474.1 928.965 1476.48 932.353 1474.92 935.198L1461.26 960.127L1474.04 985.522C1475.49 988.411 1473 991.721 1469.82 991.112L1441.89 985.81L1421.7 1005.81C1419.4 1008.09 1415.48 1006.74 1415.07 1003.53H1415.08Z" fill="#CD7F32"/>
<path d="M535.117 1129.66C535.117 1129.66 568.213 1134.77 592.657 1159.15C617.1 1183.54 631.695 1222.71 631.695 1222.71L581.635 1237.31C581.635 1237.31 601.642 1190.62 535.105 1129.65L535.117 1129.66Z" fill="#F3B06E"/>
<path d="M525.944 1153.7L529.529 1125.49L554.792 1112.46C557.669 1110.98 557.591 1106.84 554.67 1105.45L528.965 1093.32L524.384 1065.26C523.864 1062.06 519.902 1060.85 517.689 1063.21L498.214 1083.92L470.119 1079.62C466.921 1079.13 464.542 1082.52 466.102 1085.36L479.768 1110.29L466.988 1135.69C465.527 1138.58 468.028 1141.89 471.204 1141.28L499.122 1135.97L519.316 1155.98C521.617 1158.26 525.535 1156.91 525.944 1153.7V1153.7Z" fill="#CD7F32"/>
<path d="M1629.8 1004.15L1637.55 991.068L1631.17 977.275C1630.44 975.703 1631.83 973.976 1633.51 974.364L1648.34 977.685L1659.48 967.345C1660.75 966.172 1662.82 966.958 1662.98 968.685L1664.41 983.817L1677.67 991.223C1679.19 992.065 1679.08 994.279 1677.49 994.965L1663.54 1001L1660.6 1015.91C1660.27 1017.6 1658.13 1018.19 1656.98 1016.88L1646.93 1005.48L1631.85 1007.3C1630.14 1007.51 1628.92 1005.65 1629.8 1004.15Z" fill="#466EB6"/>
<path d="M882.826 412.395L892.597 395.889L884.541 378.487C883.622 376.506 885.382 374.325 887.506 374.812L906.218 379.008L920.271 365.967C921.875 364.484 924.476 365.48 924.686 367.65L926.479 386.746L943.221 396.089C945.124 397.151 944.991 399.941 942.977 400.816L925.383 408.421L921.676 427.24C921.256 429.387 918.556 430.107 917.117 428.468L904.447 414.077L885.415 416.358C883.246 416.623 881.719 414.277 882.837 412.395H882.826Z" fill="#F79C8D"/>
<path d="M1599.7 453.387L1573.9 470.601L1588.32 495.652L1563.67 513.74L1574.5 539.379L1558.26 555.928L1566.63 564.153L1588.35 542.013L1578.09 517.715L1603.73 498.907L1589.56 474.265L1612.93 458.667L1599.7 453.387Z" fill="#F48C7F"/>
<path d="M1639.31 868.379L1621.06 843.295L1596.63 858.726L1577.57 834.815L1552.4 846.682L1535.21 831.129L1527.34 839.83L1550.32 860.641L1574.18 849.394L1594.01 874.269L1618.04 859.092L1634.56 881.818L1639.31 868.379Z" fill="#F48C7F"/>
<path d="M784.277 348.919L790.474 318.521L762.6 310.893L767.38 280.694L741.642 270.112L741.52 246.92L729.791 246.986L729.946 278.004L754.334 288.023L749.366 319.451L776.775 326.945L771.164 354.487L784.277 348.919Z" fill="#F48C7F"/>
<path d="M543.184 389.336L554.991 411.387L580.441 409.97L591.927 435.62L618.573 425.734L632.836 454.173L658.497 448.095L676.688 473.213L667.194 480.11L653.583 461.324L626.507 467.734L612.797 440.402L585.708 450.453L573.039 422.136L548.175 423.531L537.231 403.096L521.098 407.424L518.055 396.089L543.184 389.336Z" fill="#CD7F32"/>
<path d="M433.381 563.444L414.592 565.348L408.185 535.448L380.367 534.839L371.913 513.253L360.98 517.526L372.289 546.408L398.647 546.983L405.319 578.09L433.592 575.223L433.381 563.444Z" fill="#50BFA5"/>
<path d="M399.577 887.686L392.55 905.22L363.094 897.018L349.65 921.383L326.612 918.848L325.328 930.515L356.145 933.914L368.881 910.811L399.522 919.346L410.111 892.955L399.577 887.686Z" fill="#50BFA5"/>
<path d="M449.504 691.547C470.351 711.551 471.048 744.683 451.042 765.539C431.047 786.395 397.928 787.092 377.081 767.078C356.234 747.074 355.537 713.942 375.543 693.086C395.538 672.23 428.657 671.532 449.504 691.547Z" fill="#FFF3D9"/>
<path d="M448.363 735.296L426.111 742.137L419.129 764.366C418.564 766.159 416.185 766.535 415.101 764.986L401.712 745.923L378.43 746.144C376.549 746.167 375.465 744.019 376.593 742.514L390.58 723.883L383.177 701.798C382.58 700.016 384.284 698.322 386.065 698.931L408.097 706.481L426.808 692.61C428.324 691.492 430.46 692.588 430.427 694.47L430.05 717.761L449.016 731.266C450.554 732.362 450.167 734.731 448.363 735.285V735.296Z" fill="#FED333"/>
<path d="M1816.01 778.646C1836.86 798.649 1837.56 831.782 1817.55 852.638C1797.56 873.493 1764.44 874.191 1743.59 854.176C1722.74 834.173 1722.05 801.04 1742.05 780.184C1762.05 759.328 1795.17 758.631 1816.01 778.646Z" fill="#FFF3D9"/>
<path d="M1814.87 822.395L1792.61 829.236L1785.63 851.464C1785.06 853.258 1782.68 853.634 1781.61 852.084L1768.22 833.022L1744.94 833.243C1743.06 833.265 1741.97 831.118 1743.1 829.612L1757.09 810.981L1749.69 788.897C1749.09 787.114 1750.79 785.421 1752.58 786.03L1774.61 793.579L1793.31 779.709C1794.82 778.591 1796.96 779.686 1796.93 781.568L1796.55 804.86L1815.52 818.376C1817.05 819.472 1816.67 821.841 1814.86 822.395H1814.87Z" fill="#FED333"/>
<path d="M1579.96 712.989L1589.1 728.188C1590.08 729.838 1592.54 729.627 1593.23 727.845L1599.73 711.34L1617 707.332C1618.87 706.901 1619.44 704.51 1617.95 703.281L1604.27 692L1605.79 674.333C1605.96 672.418 1603.86 671.145 1602.24 672.174L1587.29 681.705L1570.96 674.787C1569.19 674.034 1567.33 675.639 1567.82 677.499L1572.27 694.668L1560.65 708.063C1559.39 709.513 1560.34 711.783 1562.25 711.893L1579.94 712.967L1579.96 712.989Z" fill="#F47458"/>
<path d="M1547.85 1061.09C1547.85 1066.94 1543.11 1071.69 1537.25 1071.69C1531.4 1071.69 1526.65 1066.94 1526.65 1061.09C1526.65 1055.23 1531.4 1050.48 1537.25 1050.48C1543.11 1050.48 1547.85 1055.23 1547.85 1061.09Z" fill="#50BFA5"/>
<path d="M307.613 739.723C307.613 745.579 302.479 750.328 296.138 750.328C289.798 750.328 284.652 745.579 284.652 739.723C284.652 733.867 289.798 729.118 296.138 729.118C302.479 729.118 307.613 733.867 307.613 739.723Z" fill="#50BFA5"/>
<path d="M907.909 232.585L921.819 235.33C921.819 235.33 942.157 225.832 943.706 221.249C945.255 216.666 944.547 206.116 947.523 205.452C950.5 204.788 956.453 205.042 958.733 212.05C960.381 217.131 954.639 233.127 956.022 234.588C956.896 235.496 964.841 237.311 970.672 238.529C974.501 239.337 977.566 242.238 978.606 246.079C979.314 248.68 978.141 251.437 975.785 252.699L972.122 254.658L973.837 258.477C975.121 261.322 973.892 264.699 971.093 266.038L968.238 267.411L969.488 269.713C971.104 272.68 969.809 276.422 966.733 277.75L964.232 278.824L964.42 279.51C965.228 282.344 963.757 285.355 961.045 286.44L958.545 287.436L921.498 280.108C918.023 279.422 914.737 278.016 911.827 275.99L899.234 271.219C897.884 270.71 897.11 269.259 897.42 267.82L904.457 234.887C904.8 233.293 906.327 232.264 907.887 232.573L907.909 232.585Z" fill="#96D9C9"/>
</g>
<path d="M1153.2 1459.99C1143.83 1459.99 1135.47 1458.38 1128.13 1455.16C1120.84 1451.94 1115.04 1447.46 1110.73 1441.74C1106.47 1435.96 1104.15 1429.26 1103.77 1421.64H1121.67C1122.05 1426.32 1123.66 1430.37 1126.5 1433.78C1129.34 1437.14 1133.06 1439.75 1137.65 1441.59C1142.24 1443.44 1147.33 1444.36 1152.92 1444.36C1159.17 1444.36 1164.71 1443.27 1169.54 1441.1C1174.37 1438.92 1178.16 1435.89 1180.9 1432.01C1183.65 1428.12 1185.02 1423.62 1185.02 1418.51C1185.02 1413.16 1183.7 1408.45 1181.05 1404.38C1178.39 1400.26 1174.51 1397.04 1169.4 1394.72C1164.28 1392.4 1158.03 1391.24 1150.65 1391.24H1139V1375.61H1150.65C1156.42 1375.61 1161.49 1374.57 1165.85 1372.49C1170.25 1370.41 1173.68 1367.47 1176.14 1363.68C1178.65 1359.89 1179.91 1355.44 1179.91 1350.33C1179.91 1345.41 1178.82 1341.12 1176.64 1337.47C1174.46 1333.83 1171.39 1330.99 1167.41 1328.95C1163.48 1326.92 1158.84 1325.9 1153.49 1325.9C1148.47 1325.9 1143.73 1326.82 1139.28 1328.67C1134.88 1330.47 1131.28 1333.09 1128.49 1336.55C1125.7 1339.96 1124.18 1344.08 1123.94 1348.91H1106.9C1107.18 1341.29 1109.48 1334.61 1113.79 1328.88C1118.1 1323.1 1123.73 1318.61 1130.69 1315.39C1137.7 1312.17 1145.39 1310.56 1153.77 1310.56C1162.77 1310.56 1170.49 1312.38 1176.93 1316.03C1183.37 1319.62 1188.31 1324.38 1191.77 1330.3C1195.23 1336.22 1196.95 1342.61 1196.95 1349.48C1196.95 1357.67 1194.8 1364.65 1190.49 1370.43C1186.23 1376.21 1180.43 1380.21 1173.09 1382.43V1383.57C1182.28 1385.08 1189.45 1388.99 1194.61 1395.29C1199.77 1401.54 1202.35 1409.28 1202.35 1418.51C1202.35 1426.42 1200.2 1433.52 1195.89 1439.82C1191.63 1446.07 1185.8 1450.99 1178.42 1454.59C1171.03 1458.19 1162.63 1459.99 1153.2 1459.99Z" fill="#FAFAFD"/>
<path d="M1078.53 143.454C1079.57 147.727 1081.44 154.481 1081.44 154.481C1081.29 156.335 1080.74 164.065 1080.09 173.537L1094.01 167.968C1094.01 167.968 1093.84 152.536 1094.46 151.588C1094.98 150.787 1095.87 151.783 1100.13 145.678C1101.37 143.914 1101.6 140.764 1101.6 140.764C1101.6 140.764 1101.85 136.888 1100.98 136.526C1100.11 136.164 1099.11 136.742 1098.8 137.411C1098.49 138.08 1098.56 139.642 1098.25 140.311C1097.94 140.98 1095.92 141.788 1095.07 141.747C1094.22 141.705 1095.18 130.281 1095.18 130.281C1095.18 130.281 1095.65 127.04 1095.89 125.98C1096.09 125.074 1096.91 122.426 1096.91 122.426C1096.91 122.426 1097.88 118.578 1096.68 118.286C1095.98 118.111 1094.19 121.234 1092.95 124.552C1091.63 128.12 1090.88 131.905 1090.5 131.856C1089.61 131.738 1090.08 125.472 1090.08 125.472C1090.08 125.472 1090.97 122.6 1090.95 121.248C1091.78 119.589 1092.34 116.508 1090.86 116.257C1090.59 116.208 1088.65 120.119 1088.65 120.119C1088.65 120.119 1087.89 122.872 1087.45 124.154C1086.66 126.426 1086.54 130.009 1086.14 131.584C1085.8 132.902 1085.49 132.358 1085.35 132.414C1085.24 132.456 1085.43 130.643 1085.65 128.155C1085.76 126.9 1085.61 125.451 1085.96 124.022C1086.29 122.698 1086.47 120.802 1086.56 119.659C1086.79 116.418 1084.76 116.752 1084.05 119.714C1083.78 120.844 1083.5 122.077 1083.21 123.325C1082.12 128.183 1082.14 132.86 1081.62 132.902C1080.94 132.95 1081.39 124.433 1081.39 124.433C1081.39 124.433 1080.35 119.721 1079.31 124.092C1078.11 129.173 1078.24 133.313 1078.26 133.494C1078.37 134.735 1077.47 139.168 1078.51 143.44L1078.53 143.454Z" fill="#F8A492"/>
<path d="M1226.26 132.197C1225.22 136.47 1223.35 143.224 1223.35 143.224C1223.49 145.078 1224.04 152.808 1224.7 162.28L1210.78 156.711C1210.78 156.711 1210.95 141.279 1210.33 140.331C1209.81 139.53 1208.92 140.527 1204.66 134.421C1203.42 132.657 1203.19 129.507 1203.19 129.507C1203.19 129.507 1202.94 125.632 1203.81 125.269C1204.68 124.907 1205.67 125.485 1205.99 126.154C1206.3 126.824 1206.22 128.385 1206.54 129.054C1206.85 129.723 1208.87 130.532 1209.72 130.49C1210.57 130.448 1209.61 119.024 1209.61 119.024C1209.61 119.024 1209.14 115.783 1208.9 114.724C1208.7 113.818 1207.88 111.169 1207.88 111.169C1207.88 111.169 1206.91 107.321 1208.11 107.029C1208.81 106.854 1210.6 109.977 1211.83 113.295C1213.16 116.863 1213.91 120.648 1214.29 120.599C1215.18 120.481 1214.71 114.215 1214.71 114.215C1214.71 114.215 1213.82 111.343 1213.84 109.991C1213 108.332 1212.45 105.251 1213.92 105C1214.2 104.952 1216.13 108.862 1216.13 108.862C1216.13 108.862 1216.89 111.615 1217.34 112.897C1218.12 115.163 1218.24 118.752 1218.65 120.327C1218.99 121.645 1219.3 121.101 1219.44 121.157C1219.55 121.199 1219.35 119.387 1219.14 116.898C1219.03 115.644 1219.17 114.194 1218.82 112.765C1218.5 111.441 1218.32 109.545 1218.23 108.402C1217.99 105.161 1220.03 105.495 1220.74 108.458C1221.01 109.587 1221.29 110.82 1221.58 112.068C1222.67 116.926 1222.64 121.603 1223.17 121.645C1223.85 121.694 1223.4 113.176 1223.4 113.176C1223.4 113.176 1224.44 108.465 1225.47 112.835C1226.67 117.916 1226.55 122.056 1226.53 122.237C1226.42 123.478 1227.32 127.911 1226.28 132.183L1226.26 132.197Z" fill="#F8A492"/>
<path d="M1139.4 182.354C1139.4 182.354 1146.48 174.882 1152.19 183.971C1152.19 183.971 1156.58 181.503 1159.66 185.895C1159.66 185.895 1167.59 183.504 1169.51 195.367C1169.51 195.367 1173.6 194.6 1174.13 199.451C1174.67 204.302 1172.21 207.536 1172.21 207.536C1172.21 207.536 1174.5 209.258 1173.46 213.719C1172.58 217.51 1169.44 218.089 1169.44 218.089C1169.44 218.089 1168.59 224.48 1165.82 226.404C1163.05 228.328 1159.28 227.408 1159.28 227.408C1159.28 227.408 1158.28 230.872 1155.04 230.565C1151.81 230.259 1147.8 227.178 1144.19 228.565C1140.57 229.952 1131.17 228.488 1131.17 228.488C1131.17 228.488 1120.62 223.79 1123.78 213.008C1123.78 213.008 1118.23 208.003 1123.09 201.995C1123.09 201.995 1119.55 192.6 1126.55 187.059C1133.56 181.517 1139.41 182.361 1139.41 182.361L1139.4 182.354Z" fill="#07345A"/>
<path d="M1188.19 495.285C1188.19 495.285 1195.9 504.855 1197.83 506.033C1199.75 507.211 1196.97 521.116 1191.73 522.029C1188.77 522.545 1187.14 519.297 1187.14 519.297L1187.99 515.289L1176.96 503.928L1188.19 495.292V495.285Z" fill="#F7A491"/>
<path d="M1148.43 497.655C1148.43 497.655 1154.86 508.131 1156.62 509.546C1158.37 510.961 1153.84 524.392 1148.53 524.629C1145.54 524.762 1144.32 521.332 1144.32 521.332L1145.68 517.471L1136.19 504.793L1148.43 497.662V497.655Z" fill="#F7A491"/>
<path d="M1156.23 509.128C1156.23 509.128 1152.54 513.84 1150.53 515.715C1147.93 518.133 1144.59 520.503 1144.59 520.503C1144.59 520.503 1140.81 527.354 1139.78 529.745C1137.49 535.07 1134.9 540.995 1135.28 543.978C1135.4 544.933 1137.54 545.95 1139.33 545.4C1146.79 543.107 1165.85 525.668 1168.26 520.991C1171.03 515.589 1156.23 509.135 1156.23 509.135V509.128Z" fill="#07345A"/>
<path d="M1101.82 349.557C1102.51 347.62 1103.18 345.828 1103.82 344.142C1111.76 345.87 1120.71 347.773 1129.92 349.739L1131.05 383.508C1131.05 380.901 1124.12 437.372 1124.12 437.372C1124.12 437.372 1142.02 477.011 1154.26 500.116C1149.24 506.389 1146.88 508.411 1139.6 512.683C1120.59 489.898 1095.72 448.204 1094.69 441.269C1094.1 437.282 1093.56 372.816 1101.82 349.564V349.557Z" fill="#1B1A27"/>
<path d="M1172.59 359.322C1170.17 385.634 1164.79 435.943 1165.23 439.993C1166.58 445.039 1190.54 491.592 1194.86 498.366C1191.44 503.524 1186.13 509.1 1180.43 510.641C1179.31 510.947 1139.77 454.671 1137.61 450.204C1135.17 445.157 1131.12 417.612 1131.04 383.515L1129.92 349.745C1145.26 353.021 1159.38 356.227 1172.59 359.329V359.322Z" fill="#1B1A27"/>
<path d="M1122.19 239.368L1140.25 241.85C1140.25 241.85 1154.74 242.205 1156.53 242.205C1158.32 242.205 1169.66 308.12 1172.95 332.927C1176.24 357.733 1173.69 362.124 1173.69 362.124C1173.69 362.124 1150.78 367.275 1133.84 365.776C1116.21 364.215 1096.38 354.701 1096.38 354.701C1096.38 354.701 1111.45 307.033 1114.43 292.145C1117.42 277.264 1122.18 239.368 1122.18 239.368H1122.19Z" fill="#96D9C9"/>
<path d="M1078.37 159.52C1078.37 159.52 1077.22 208.665 1079.06 212.422C1081.76 217.887 1112.1 256.668 1112.1 256.668C1112.1 256.668 1097.6 317.328 1091.51 338.273C1090.9 340.384 1088.18 354.011 1088.18 355.335C1088.18 358.283 1101 362.019 1102.52 361.796C1103.88 361.594 1115.07 303.897 1122.21 275.668C1124.63 266.098 1128.78 257.058 1134.46 248.987L1139.43 241.933L1101.32 203.724C1101.32 203.724 1096.62 161.193 1096.62 157.673C1096.62 156.746 1080.22 156.056 1078.37 159.52H1078.37Z" fill="#00AEEF"/>
<path d="M1155.87 242.114L1203.4 193.68C1203.4 193.68 1210.02 147.88 1210.5 146.151C1210.96 144.458 1222.76 143.537 1227.52 143.077C1229.05 142.931 1226.72 191.861 1224.45 200.064C1221.76 209.753 1185.83 253.9 1185.83 253.9C1185.83 253.9 1179.39 277.815 1180.95 295.351C1183.53 324.486 1190.47 364.556 1189.22 365.811C1181.5 370.676 1151.85 371.199 1149.98 368.174C1129.26 334.801 1155.88 242.107 1155.88 242.107L1155.87 242.114Z" fill="#00AEEF"/>
<path d="M1140.6 233.068L1139.32 242.582C1139.32 242.582 1136.45 256.292 1140.14 258.933C1143.84 261.575 1155.86 242.191 1155.86 242.191L1154.59 218.082L1140.6 233.068V233.068Z" fill="#F7A491"/>
<path d="M1155 225.895C1151.95 234.12 1144.68 239.173 1139.52 241.132L1140.6 233.068L1154.59 218.082L1155 225.895V225.895Z" fill="#F47458"/>
<path d="M1174.26 201.695C1174.26 205.368 1172.17 208.345 1169.59 208.345C1167.02 208.345 1164.93 205.368 1164.93 201.695C1164.93 198.022 1167.02 195.046 1169.59 195.046C1172.17 195.046 1174.26 198.022 1174.26 201.695Z" fill="#07345A"/>
<path d="M1154.6 191.219C1157.73 191.219 1160.27 189.509 1160.27 187.4C1160.27 185.29 1157.73 183.58 1154.6 183.58C1151.46 183.58 1148.92 185.29 1148.92 187.4C1148.92 189.509 1151.46 191.219 1154.6 191.219Z" fill="#07345A"/>
<path d="M1146.05 192.753C1138.55 190.174 1130.56 195.15 1129.41 202.887C1128.91 206.247 1128.46 210.477 1128.38 215.091C1128.18 226.202 1133.93 237.019 1138.97 237.019C1144.02 237.019 1157.96 229.826 1158.46 214.046C1158.78 204.309 1153.91 195.457 1146.05 192.746L1146.05 192.753Z" fill="#F7A491"/>
<path d="M1154.75 215.293C1154.75 217.747 1156.37 219.733 1158.38 219.733C1160.39 219.733 1162.01 217.747 1162.01 215.293C1162.01 212.84 1160.39 210.854 1158.38 210.854C1156.37 210.854 1154.75 212.84 1154.75 215.293Z" fill="#F7A491"/>
<path d="M1124.19 187.219C1118.98 191.345 1117.15 197.625 1120.11 201.236C1123.07 204.846 1129.69 204.428 1134.91 200.295C1140.12 196.168 1141.95 189.888 1138.98 186.278C1136.02 182.668 1129.4 183.086 1124.19 187.219Z" fill="#07345A"/>
<path d="M1142.66 193.854C1145.33 193.854 1147.5 192.4 1147.5 190.606C1147.5 188.813 1145.33 187.358 1142.66 187.358C1139.99 187.358 1137.82 188.813 1137.82 190.606C1137.82 192.4 1139.99 193.854 1142.66 193.854Z" fill="#07345A"/>
<path d="M1123.42 204.413C1123.42 206.72 1125.26 208.588 1127.55 208.588C1129.83 208.588 1131.68 206.72 1131.68 204.413C1131.68 202.106 1129.83 200.238 1127.55 200.238C1125.26 200.238 1123.42 202.106 1123.42 204.413Z" fill="#07345A"/>
<path d="M1197.4 505.678C1197.4 505.678 1194.34 510.822 1192.57 512.941C1190.3 515.673 1187.3 518.447 1187.3 518.447C1187.3 518.447 1184.43 525.724 1183.71 528.226C1182.11 533.802 1180.31 540.521 1181.05 543.434C1181.3 544.368 1183.35 546.153 1185.04 545.044C1191.58 540.786 1209.04 520.852 1210.82 515.896C1212.89 510.187 1197.38 505.671 1197.38 505.671L1197.4 505.678Z" fill="#07345A"/>
</g>
<defs>
<linearGradient id="paint0_linear_890_555" x1="986.534" y1="1365.33" x2="986.534" y2="1748.91" gradientUnits="userSpaceOnUse">
<stop stop-color="#F72585"/>
<stop offset="0.504732" stop-color="#CE31C7"/>
<stop offset="1" stop-color="#7241FF"/>
</linearGradient>
<linearGradient id="paint1_linear_890_555" x1="1204.18" y1="1892.93" x2="681.808" y2="1559.49" gradientUnits="userSpaceOnUse">
<stop offset="0.202045" stop-color="#FFAC00"/>
<stop offset="0.526042" stop-color="#F44CE1"/>
<stop offset="1" stop-color="#7461FF"/>
</linearGradient>
<clipPath id="clip0_890_555">
<rect width="2057" height="2057" fill="white"/>
</clipPath>
<clipPath id="clip1_890_555">
<rect width="2877" height="2214" fill="white" transform="translate(-410 -14)"/>
</clipPath>
</defs>
</svg>
