<svg width="2057" height="2057" viewBox="0 0 2057 2057" fill="none" xmlns="http://www.w3.org/2000/svg">
<g clip-path="url(#clip0_890_277)">
<rect width="2057" height="2057" fill="white"/>
<g clip-path="url(#clip1_890_277)">
<path d="M2467 -48H-410V2166H2467V-48Z" fill="white"/>
<path d="M1320.05 570.915C1318.78 576.86 1317.64 583.015 1314.54 588.007C1309.22 594.439 1304.19 601.07 1299.42 607.878C1302.71 607.646 1306.01 607.491 1309.35 607.491C1342.18 607.491 1372.72 619.059 1395.35 640.048C1415.59 658.811 1426.72 682.866 1426.72 707.785C1426.72 732.703 1415.58 756.748 1395.35 775.522C1372.71 796.522 1342.17 808.079 1309.35 808.079C1276.53 808.079 1246.14 796.577 1223.53 775.677C1221.88 780.559 1220.24 785.397 1218.6 790.267C1207.54 795.88 1199.76 809.098 1199.76 824.507C1199.76 845.009 1213.51 861.636 1230.48 861.636C1243.82 861.636 1255.14 851.341 1259.38 836.972C1274.99 842.175 1291.8 845.042 1309.35 845.042C1391.08 845.042 1457.33 783.581 1457.33 707.774C1457.33 631.966 1396.78 575.996 1320.06 570.904L1320.05 570.915Z" fill="#E0973F"/>
<path d="M656.437 570.915C657.709 576.86 658.849 583.015 661.947 588.007C667.27 594.439 672.293 601.07 677.062 607.878C673.776 607.646 670.479 607.491 667.137 607.491C634.306 607.491 603.765 619.059 581.137 640.048C560.898 658.811 549.755 682.866 549.755 707.785C549.755 732.703 560.898 756.748 581.137 775.522C603.777 796.522 634.317 808.079 667.137 808.079C699.957 808.079 730.342 796.577 752.96 775.677C754.609 780.559 756.246 785.397 757.884 790.267C768.949 795.88 776.728 809.098 776.728 824.507C776.728 845.009 762.974 861.636 746.011 861.636C732.666 861.636 721.346 851.341 717.097 836.972C701.484 842.175 684.675 845.042 667.126 845.042C585.397 845.042 519.148 783.581 519.148 707.774C519.148 631.966 579.698 575.996 656.415 570.904L656.437 570.915Z" fill="#E0973F"/>
<path d="M1341.34 555.284V593.177C1341.34 764.441 1202.52 903.314 1031.33 903.314C952.48 902.262 898.381 910.421 823.512 877.266C715.647 829.942 637.99 721.511 637.99 593.177V555.284H1341.35H1341.34Z" fill="#F7CC7F"/>
<path d="M823.513 877.267C823.59 877.3 823.668 877.333 823.745 877.366L935.185 555.273H819.175L729.855 813.481C756.833 840.215 788.59 861.935 823.513 877.255V877.267Z" fill="#FAE0B2"/>
<path d="M896.013 899.008L1013.61 555.284H955.335L842.557 884.993C861.257 891.879 878.807 896.251 896.025 898.997L896.013 899.008Z" fill="#FAE0B2"/>
<path d="M718.558 801.691L806.494 555.284H778.787L699.227 778.234C705.29 786.381 711.741 794.208 718.558 801.691V801.691Z" fill="#FAE0B2"/>
<path d="M1310.63 533.809H670.456C647.086 533.809 628.042 546.816 626.703 563.211H1354.38C1353.05 546.816 1333.99 533.809 1310.63 533.809V533.809Z" fill="#F7CC7F"/>
<path d="M870.795 894.248L907.023 1080.27H1065.41L1110.28 894.248H870.795Z" fill="#F7CC7F"/>
<path d="M1110.29 894.259L1100.17 936.236H878.995L870.807 894.259H1110.29Z" fill="#B75742"/>
<path d="M1110.29 1310.39H870.807L888.766 1218.06L907.001 1124.37H1065.42L1088.03 1218.06L1110.29 1310.39Z" fill="#F7CC7F"/>
<path d="M1110.29 1310.39H870.807L888.766 1218.06H1088.03L1110.29 1310.39Z" fill="#B75742"/>
<path d="M879.238 1080.27H1093.2C1102.63 1080.27 1110.28 1087.93 1110.28 1097.36V1107.26C1110.28 1116.69 1102.63 1124.36 1093.19 1124.36H879.227C869.799 1124.36 862.131 1116.7 862.131 1107.26V1097.35C862.131 1087.92 869.788 1080.26 879.216 1080.26L879.238 1080.27Z" fill="#FAE0B2"/>
<path d="M854.982 1237.06H1118.04C1123.51 1237.06 1127.95 1241.5 1127.95 1246.98V1297.82H845.078V1246.98C845.078 1241.51 849.515 1237.06 854.993 1237.06H854.982Z" fill="#F7CC7F"/>
<path d="M1221.42 1334.11V1352.59H751.576V1334.11C751.576 1312.82 764.567 1295.54 780.579 1295.54H1192.42C1208.43 1295.54 1221.42 1312.82 1221.42 1334.11Z" fill="#F7CC7F"/>
<path d="M862.208 1295.54L847.336 1352.59H827.729L842.6 1295.54H862.208Z" fill="#FAE0B2"/>
<path d="M834.124 1295.54L819.263 1352.59H799.633L814.516 1295.54H834.124Z" fill="#FAE0B2"/>
<path d="M887.161 1295.54L872.3 1352.59H852.67L867.553 1295.54H887.161Z" fill="#FAE0B2"/>
<path d="M1396.37 1774.74V1793.22H609.055V1774.74C609.055 1753.45 630.82 1736.17 657.643 1736.17H1347.77C1374.59 1736.17 1396.36 1753.45 1396.36 1774.74H1396.37Z" fill="#F7CC7F"/>
<path d="M794.412 1736.18L769.504 1793.23H736.65L761.559 1736.18H794.412Z" fill="#FAE0B2"/>
<path d="M747.372 1736.18L722.464 1793.23H689.566L714.519 1736.18H747.372Z" fill="#FAE0B2"/>
<path d="M836.237 1736.18L811.329 1793.23H778.432L803.384 1736.18H836.237Z" fill="#FAE0B2"/>
<path d="M1191.11 859.101V873.049C1191.11 897.203 1171.56 916.753 1147.45 916.753H832.067C807.922 916.753 788.381 897.203 788.381 873.049V859.101H1191.11Z" fill="#F7CC7F"/>
<path d="M1287.12 1736.18H694.645L701.87 1352.6H1279.17L1287.12 1736.18Z" fill="url(#paint0_linear_890_277)"/>
<path d="M1146.23 1736.18H835.541L839.337 1352.6H1142.06L1146.23 1736.18Z" fill="url(#paint1_linear_890_277)"/>
<path d="M1086.18 1724.64L1039.21 1647.89L970.162 1705.58L1041.2 1272.82L1157.23 1291.88L1086.18 1724.64Z" fill="#B75742"/>
<path d="M1300.81 1705.36L1231.63 1647.84L1184.82 1724.69L1112.78 1292.1L1228.76 1272.76L1300.81 1705.36Z" fill="#B75742"/>
<path d="M1396.37 1372.43C1396.37 1397.42 1374.34 1418.64 1367.01 1441.19C1359.42 1464.57 1364.52 1494.64 1350.37 1514.1C1336.07 1533.76 1305.82 1538.12 1286.17 1552.43C1266.72 1566.58 1253.29 1594.1 1229.92 1601.7C1207.37 1609.03 1180.45 1594.89 1155.45 1594.89C1130.46 1594.89 1103.53 1609.02 1080.98 1601.7C1057.61 1594.1 1044.19 1566.58 1024.74 1552.43C1005.1 1538.12 974.832 1533.75 960.536 1514.1C946.383 1494.64 951.484 1464.57 943.894 1441.19C936.568 1418.63 914.537 1397.42 914.537 1372.43C914.537 1347.43 936.568 1326.21 943.894 1303.66C951.484 1280.28 946.383 1250.21 960.536 1230.75C974.832 1211.1 1005.09 1206.73 1024.74 1192.43C1044.19 1178.27 1057.61 1150.75 1080.98 1143.16C1103.53 1135.83 1130.46 1149.96 1155.44 1149.96C1180.43 1149.96 1207.36 1135.84 1229.91 1143.17C1253.28 1150.76 1266.7 1178.28 1286.16 1192.44C1305.8 1206.74 1336.06 1211.11 1350.36 1230.76C1364.51 1250.23 1359.41 1280.29 1367 1303.67C1374.33 1326.23 1396.36 1347.44 1396.36 1372.44L1396.37 1372.43Z" fill="#F47458"/>
<path d="M1215.48 1586.32C1207.9 1586.32 1199.09 1584.38 1189.77 1582.34C1178.76 1579.91 1167.36 1577.41 1155.45 1577.41C1143.55 1577.41 1132.15 1579.91 1121.13 1582.34C1111.8 1584.38 1102.99 1586.32 1095.41 1586.32C1091.93 1586.32 1088.98 1585.91 1086.38 1585.07C1076.74 1581.94 1068.11 1572.13 1058.96 1561.74C1051.71 1553.5 1044.22 1545 1035.03 1538.3C1025.7 1531.51 1015.21 1526.94 1005.06 1522.53C992.437 1517.03 980.52 1511.84 974.677 1503.82C968.934 1495.92 967.673 1483.04 966.334 1469.39C965.25 1458.32 964.121 1446.87 960.536 1435.8C957.083 1425.16 951.374 1415.53 945.852 1406.21C938.748 1394.22 932.031 1382.89 932.031 1372.43C932.031 1361.97 938.748 1350.64 945.852 1338.65C951.374 1329.33 957.083 1319.7 960.536 1309.06C964.132 1297.98 965.261 1286.54 966.345 1275.47C967.684 1261.83 968.945 1248.93 974.688 1241.05C980.531 1233.02 992.448 1227.83 1005.07 1222.34C1015.22 1217.92 1025.72 1213.36 1035.05 1206.57C1044.25 1199.87 1051.75 1191.36 1058.98 1183.13C1068.14 1172.74 1076.78 1162.92 1086.4 1159.79C1088.99 1158.95 1091.95 1158.54 1095.43 1158.54C1103.01 1158.54 1111.82 1160.48 1121.15 1162.53C1132.17 1164.95 1143.56 1167.46 1155.47 1167.46C1167.39 1167.46 1178.78 1164.95 1189.8 1162.53C1199.13 1160.48 1207.94 1158.54 1215.52 1158.54C1219 1158.54 1221.96 1158.95 1224.54 1159.79C1234.18 1162.93 1242.82 1172.75 1251.96 1183.14C1259.21 1191.37 1266.7 1199.88 1275.9 1206.58C1285.23 1213.36 1295.72 1217.93 1305.86 1222.35C1318.49 1227.84 1330.41 1233.03 1336.25 1241.06C1341.99 1248.95 1343.25 1261.84 1344.59 1275.49C1345.68 1286.56 1346.81 1298 1350.39 1309.07C1353.84 1319.71 1359.55 1329.35 1365.08 1338.66C1372.18 1350.65 1378.9 1361.99 1378.9 1372.44C1378.9 1382.89 1372.18 1394.22 1365.08 1406.22C1359.55 1415.53 1353.84 1425.18 1350.39 1435.81C1346.8 1446.9 1345.67 1458.34 1344.58 1469.4C1343.24 1483.04 1341.98 1495.94 1336.24 1503.83C1330.4 1511.87 1318.48 1517.05 1305.85 1522.54C1295.71 1526.95 1285.21 1531.51 1275.88 1538.31C1266.68 1545.01 1259.19 1553.52 1251.94 1561.75C1242.79 1572.14 1234.15 1581.96 1224.52 1585.08C1221.93 1585.92 1218.98 1586.33 1215.49 1586.33L1215.48 1586.32Z" fill="#F7CC7F"/>
<path d="M1329.26 1396.75C1342.68 1300.72 1275.75 1211.99 1179.76 1198.56C1083.77 1185.14 995.071 1252.1 981.649 1348.13C968.227 1444.16 1035.16 1532.89 1131.15 1546.32C1227.14 1559.75 1315.84 1492.79 1329.26 1396.75Z" fill="#F47458"/>
<path d="M1155.45 1539.24C1247.54 1539.24 1322.2 1464.56 1322.2 1372.43C1322.2 1280.3 1247.54 1205.61 1155.45 1205.61C1063.36 1205.61 988.709 1280.3 988.709 1372.43C988.709 1464.56 1063.36 1539.24 1155.45 1539.24Z" fill="white"/>
<path d="M1305.92 1387.35C1314.14 1304.23 1253.45 1230.18 1170.36 1221.95C1087.28 1213.73 1013.26 1274.45 1005.04 1357.57C996.82 1440.69 1057.51 1514.74 1140.6 1522.96C1223.68 1531.19 1297.7 1470.47 1305.92 1387.35Z" fill="#F7CC7F"/>
<path d="M1331.06 306.962C1329.41 313.748 1326.44 324.475 1326.44 324.475C1326.67 327.419 1327.54 339.696 1328.58 354.74L1306.48 345.895C1306.48 345.895 1306.75 321.386 1305.77 319.881C1304.94 318.608 1303.53 320.191 1296.76 310.493C1294.8 307.693 1294.43 302.689 1294.43 302.689C1294.43 302.689 1294.04 296.534 1295.41 295.958C1296.79 295.383 1298.37 296.302 1298.87 297.364C1299.37 298.427 1299.25 300.907 1299.75 301.969C1300.24 303.032 1303.44 304.316 1304.79 304.25C1306.14 304.183 1304.63 286.04 1304.63 286.04C1304.63 286.04 1303.87 280.892 1303.5 279.209C1303.18 277.77 1301.87 273.564 1301.87 273.564C1301.87 273.564 1300.34 267.453 1302.24 266.988C1303.35 266.711 1306.2 271.671 1308.16 276.94C1310.26 282.608 1311.45 288.619 1312.05 288.541C1313.47 288.353 1312.71 278.401 1312.71 278.401C1312.71 278.401 1311.31 273.841 1311.34 271.693C1310.01 269.058 1309.13 264.176 1311.48 263.767C1311.91 263.689 1314.98 269.9 1314.98 269.9C1314.98 269.9 1316.19 274.272 1316.9 276.309C1318.14 279.918 1318.32 285.608 1318.98 288.11C1319.52 290.202 1320.01 289.339 1320.23 289.427C1320.41 289.494 1320.1 286.615 1319.75 282.663C1319.58 280.671 1319.81 278.368 1319.25 276.099C1318.73 273.995 1318.45 270.984 1318.31 269.169C1317.94 264.021 1321.17 264.553 1322.3 269.258C1322.72 271.051 1323.17 273.01 1323.61 274.992C1325.35 282.708 1325.31 290.136 1326.14 290.202C1327.21 290.279 1326.5 276.752 1326.5 276.752C1326.5 276.752 1328.16 269.258 1329.8 276.21C1331.71 284.28 1331.51 290.855 1331.48 291.143C1331.3 293.113 1332.73 300.154 1331.08 306.94L1331.06 306.962Z" fill="#F8A492"/>
<path d="M1329.62 336.607C1329.62 336.607 1304.72 330.641 1304.48 332.644C1299.25 376.47 1296.9 392.312 1296.02 392.777C1293 394.326 1252.99 357.729 1245.86 355.249C1242.45 354.065 1238.73 354.264 1235.18 354.364C1226.69 354.618 1225.02 354.64 1225.02 354.64C1224.78 354.651 1224.71 354.663 1224.71 354.663L1224.76 362.644C1234.32 371.245 1256.2 501.584 1258.04 501.495C1260.1 501.395 1303.35 512.288 1302.59 508.646C1302.47 508.059 1273.27 484.148 1264.98 449.643C1262.2 438.064 1260.83 425.588 1259.31 414.673C1268.92 419.488 1306.46 437.975 1312.4 435.529C1330.91 427.935 1329.6 336.596 1329.6 336.596L1329.62 336.607Z" fill="#E73B65"/>
<path d="M1404.1 568.015C1404.1 568.015 1444.35 599.553 1445.69 605.143C1447.62 613.191 1484.47 602.608 1475.59 600.97C1473.54 600.594 1467 598.933 1466.46 598.645C1463.58 597.107 1427.77 553.934 1427.77 553.934L1404.1 568.015V568.015Z" fill="#F7A491"/>
<path d="M1492.87 600.97L1467.18 598.878C1467.18 598.878 1459.83 604.955 1445.72 605.243C1445.72 605.243 1443.46 611.697 1444.54 619.236C1444.73 620.531 1444.94 624.472 1446.25 624.383C1451 624.062 1463.65 620.907 1478.05 618.029C1478.05 618.029 1497.42 613.922 1508.61 607.236C1519.79 600.538 1492.87 600.981 1492.87 600.981V600.97Z" fill="#B75742"/>
<path d="M1223.78 488.908C1223.78 488.908 1253.25 493.868 1285.85 486.229C1323.56 477.407 1365.26 469.237 1377.48 476.344C1387.32 482.067 1448.73 574.911 1448.73 574.911L1425.02 592.225L1357.39 516.462C1357.39 516.462 1271.11 548.31 1251.73 544.779C1207.6 536.742 1206.97 501.484 1223.78 488.897V488.908Z" fill="#1B1A27"/>
<path d="M1256.01 470.167L1285.49 505.226L1230.8 521.897L1223.78 488.908L1256.01 470.167Z" fill="#1B1A27"/>
<path d="M1315.93 630.306C1315.93 630.306 1314.14 679.003 1313.03 687.25C1311.93 695.464 1333.69 720.183 1330.91 711.582C1330.26 709.6 1328.62 703.058 1328.62 702.449C1328.6 699.183 1336.68 643.634 1336.68 643.634L1315.93 630.306V630.306Z" fill="#F7A491"/>
<path d="M1344.82 729.315L1328.75 703.179C1328.75 703.179 1319.91 699.604 1312.95 687.316C1312.95 687.316 1306.21 688.39 1300.08 692.917C1299.02 693.692 1291.82 698.962 1292.32 700.179C1294.17 704.652 1303.97 714.227 1314.68 724.688C1314.68 724.688 1329.88 736.943 1341.08 743.607C1352.27 750.271 1344.8 729.315 1344.8 729.315H1344.82Z" fill="#B75742"/>
<path d="M1363.7 534.296C1353.4 520.547 1270.22 507.495 1270.22 507.495L1247.03 462.905L1195.75 494.543C1195.75 494.543 1200.88 535.369 1204.73 546.273C1209.85 560.808 1244.32 561.55 1265.37 561.329C1284.73 561.129 1320.11 565.081 1320.11 565.081L1308.15 670.678C1308.15 670.678 1331.66 676.036 1338.28 675.172C1339.02 675.073 1376.53 551.399 1363.7 534.307V534.296Z" fill="#1B1A27"/>
<path d="M1224.99 354.74L1196.05 356.356C1196.05 356.356 1195.39 356.556 1195.19 356.6C1192.83 357.032 1194.97 441.385 1197.08 472.89C1199.18 504.396 1203.44 517.635 1203.44 517.635C1203.44 517.635 1242.68 510.661 1254.72 505.99C1259.72 504.052 1271.82 488.92 1271.82 488.92C1271.82 488.92 1259.46 472.304 1253.24 445.304C1248.44 424.481 1242.52 387.574 1239.13 379.869C1231.35 362.179 1224.99 354.751 1224.99 354.751V354.74Z" fill="#9BC1F9"/>
<path d="M1196.88 330.796L1196.06 356.356C1196.06 356.356 1214.8 388.636 1224.41 384.142C1232.48 380.367 1225.32 355.803 1225.32 355.803C1225.32 355.803 1223.93 350.168 1221.99 343.703C1220.64 339.187 1219.51 334.283 1219.59 330.696C1219.79 321.962 1196.89 330.796 1196.89 330.796H1196.88Z" fill="#F7A491"/>
<path d="M1219.58 330.696C1219.78 321.962 1196.88 330.796 1196.88 330.796L1196.8 333.298C1197.58 334.46 1198.43 335.445 1199.36 336.209C1205.51 341.213 1214.42 343.46 1221.66 342.63C1220.45 338.423 1219.5 334.006 1219.58 330.696Z" fill="#F47458"/>
<path d="M1219.26 272.512C1219.26 272.512 1228.81 286.903 1229.51 299.014C1230.22 311.124 1227.67 319.394 1227.67 319.394L1197.04 282.763L1219.26 272.501V272.512Z" fill="#184655"/>
<path d="M1232.68 296.534C1233.11 300.774 1231.46 304.416 1229 304.67C1226.53 304.925 1224.18 301.692 1223.75 297.442C1223.32 293.202 1224.97 289.56 1227.43 289.305C1229.9 289.05 1232.25 292.283 1232.68 296.534Z" fill="#F48C7F"/>
<path d="M1187.12 288.641C1186.43 288.497 1186.49 323.755 1196.71 332.047C1206.92 340.349 1224.7 341.069 1229.89 332.711C1235.63 323.467 1230.17 286.317 1214.97 278.424C1199.78 270.531 1187.12 288.641 1187.12 288.641Z" fill="#F7A491"/>
<path d="M1184.53 266.778C1176.73 273.619 1172.96 278.612 1167.68 290.778C1161.2 305.733 1174.07 321.22 1184.85 327.386C1195.64 333.541 1196.55 340.991 1196.55 340.991L1196.99 336.408C1197.2 334.726 1197.15 333.364 1196.85 332.191C1196.51 330.807 1195.88 329.655 1195.31 328.471C1194.39 326.512 1191.44 319.77 1190.29 317.999C1187.24 313.316 1186.65 312.298 1188.15 307.848C1189.3 304.416 1187.98 296.866 1189.76 291.209L1204.29 288.077C1204.29 288.077 1213.38 285.885 1217.97 280.593C1231.15 265.372 1205.09 248.413 1184.52 266.811L1184.53 266.778Z" fill="#184655"/>
<path d="M1191.62 311.678C1193.41 315.553 1193.03 319.527 1190.79 320.567C1188.54 321.608 1185.26 319.316 1183.47 315.442C1181.68 311.567 1182.05 307.593 1184.3 306.553C1186.55 305.512 1189.82 307.804 1191.62 311.678Z" fill="#F7A491"/>
<path d="M1092.61 214.406C1094.26 221.192 1097.24 231.919 1097.24 231.919C1097.01 234.863 1096.13 247.14 1095.09 262.184L1117.19 253.339C1117.19 253.339 1116.92 228.83 1117.91 227.325C1118.74 226.051 1120.14 227.634 1126.92 217.937C1128.87 215.136 1129.24 210.133 1129.24 210.133C1129.24 210.133 1129.64 203.978 1128.27 203.402C1126.88 202.827 1125.3 203.745 1124.8 204.808C1124.3 205.871 1124.43 208.351 1123.93 209.413C1123.43 210.476 1120.23 211.76 1118.88 211.694C1117.53 211.627 1119.05 193.484 1119.05 193.484C1119.05 193.484 1119.8 188.336 1120.18 186.653C1120.5 185.214 1121.8 181.008 1121.8 181.008C1121.8 181.008 1123.34 174.897 1121.44 174.432C1120.32 174.155 1117.48 179.115 1115.52 184.384C1113.42 190.052 1112.22 196.063 1111.62 195.985C1110.21 195.797 1110.96 185.845 1110.96 185.845C1110.96 185.845 1112.36 181.284 1112.33 179.137C1113.66 176.502 1114.54 171.609 1112.2 171.211C1111.77 171.133 1108.69 177.343 1108.69 177.343C1108.69 177.343 1107.49 181.716 1106.78 183.753C1105.54 187.362 1105.35 193.052 1104.7 195.554C1104.15 197.646 1103.67 196.782 1103.45 196.871C1103.27 196.937 1103.58 194.059 1103.92 190.107C1104.1 188.115 1103.87 185.812 1104.42 183.543C1104.94 181.439 1105.23 178.428 1105.36 176.613C1105.74 171.465 1102.51 171.997 1101.38 176.701C1100.96 178.495 1100.5 180.454 1100.06 182.436C1098.32 190.151 1098.37 197.579 1097.54 197.646C1096.46 197.723 1097.17 184.196 1097.17 184.196C1097.17 184.196 1095.51 176.701 1093.87 183.653C1091.96 191.723 1092.16 198.299 1092.19 198.587C1092.37 200.557 1090.94 207.598 1092.59 214.384L1092.61 214.406Z" fill="#F8A492"/>
<path d="M1196.05 356.356C1196.05 356.356 1167.37 355.017 1159.97 351.674C1155.49 349.648 1118.63 319.936 1118.63 319.936L1119.04 240.387L1093.11 238.417C1093.11 238.417 1079.67 326.346 1084.32 335.976C1089.13 345.917 1143.08 386.832 1153.87 404.588C1160.09 414.817 1173.05 553.945 1175.02 555.196C1188.98 562.469 1232.08 569.719 1231.07 565.314C1203.01 443.466 1196.05 356.367 1196.05 356.367V356.356Z" fill="#E73B65"/>
<path d="M1410.27 966.778C1410.27 966.778 1377.17 971.881 1352.73 996.269C1328.28 1020.66 1313.68 1059.82 1313.68 1059.82L1363.74 1074.42C1363.74 1074.42 1343.73 1027.73 1410.27 966.767V966.778Z" fill="#FAE0B2"/>
<path d="M1419.43 990.8L1415.84 962.594L1390.58 949.564C1387.7 948.081 1387.78 943.941 1390.7 942.557L1416.41 930.424L1420.99 902.362C1421.51 899.163 1425.47 897.956 1427.68 900.314L1447.16 921.026L1475.25 916.72C1478.45 916.233 1480.83 919.62 1479.27 922.465L1465.6 947.395L1478.38 972.789C1479.83 975.679 1477.34 978.989 1474.17 978.38L1446.24 973.077L1426.05 993.081C1423.74 995.361 1419.83 994.011 1419.42 990.8H1419.43Z" fill="#F7CC7F"/>
<path d="M539.464 1116.93C539.464 1116.93 572.561 1122.04 597.004 1146.42C621.448 1170.81 636.043 1209.98 636.043 1209.98L585.983 1224.58C585.983 1224.58 605.989 1177.88 539.453 1116.92L539.464 1116.93Z" fill="#FAE0B2"/>
<path d="M530.292 1140.96L533.877 1112.76L559.139 1099.73C562.016 1098.25 561.939 1094.11 559.017 1092.72L533.313 1080.59L528.731 1052.53C528.211 1049.33 524.25 1048.12 522.037 1050.48L502.562 1071.19L474.467 1066.88C471.269 1066.4 468.89 1069.78 470.45 1072.63L484.116 1097.56L471.335 1122.95C469.875 1125.84 472.375 1129.15 475.551 1128.54L503.469 1123.24L523.664 1143.25C525.965 1145.53 529.882 1144.18 530.292 1140.96V1140.96Z" fill="#F7CC7F"/>
<path d="M1634.15 991.42L1641.9 978.335L1635.51 964.542C1634.78 962.97 1636.18 961.243 1637.86 961.631L1652.69 964.952L1663.83 954.612C1665.1 953.439 1667.17 954.225 1667.33 955.952L1668.75 971.085L1682.02 978.49C1683.54 979.332 1683.43 981.546 1681.83 982.232L1667.89 988.265L1664.95 1003.18C1664.62 1004.87 1662.48 1005.46 1661.33 1004.15L1651.28 992.749L1636.2 994.564C1634.48 994.774 1633.27 992.915 1634.15 991.42Z" fill="#466EB6"/>
<path d="M887.173 399.662L896.944 383.157L888.889 365.755C887.97 363.773 889.729 361.593 891.854 362.08L910.566 366.275L924.619 353.235C926.223 351.751 928.824 352.748 929.034 354.917L930.826 374.013L947.568 383.356C949.472 384.419 949.339 387.209 947.325 388.083L929.731 395.688L926.024 414.507C925.603 416.655 922.903 417.374 921.465 415.736L908.795 401.345L889.763 403.625C887.594 403.891 886.067 401.544 887.184 399.662H887.173Z" fill="#F79C8D"/>
<path d="M1604.04 440.654L1578.25 457.868L1592.67 482.92L1568.01 501.008L1578.85 526.646L1562.6 543.196L1570.98 551.421L1592.7 529.281L1582.43 504.982L1608.08 486.174L1593.91 461.532L1617.28 445.935L1604.04 440.654Z" fill="#F48C7F"/>
<path d="M1643.66 855.647L1625.41 830.562L1600.98 845.993L1581.91 822.082L1556.75 833.949L1539.55 818.396L1531.69 827.097L1554.67 847.909L1578.53 836.661L1598.36 861.536L1622.39 846.359L1638.91 869.086L1643.66 855.647Z" fill="#F48C7F"/>
<path d="M788.625 336.187L794.821 305.789L766.947 298.162L771.728 267.963L745.99 257.38L745.868 234.188L734.139 234.254L734.293 265.273L758.682 275.291L753.713 306.719L781.122 314.213L775.512 341.755L788.625 336.187Z" fill="#F48C7F"/>
<path d="M547.532 376.604L559.339 398.655L584.789 397.238L596.275 422.887L622.92 413.002L637.184 441.441L662.844 435.363L681.036 460.481L671.542 467.378L657.931 448.592L630.854 455.001L617.144 427.669L590.056 437.721L577.386 409.404L552.522 410.799L541.579 390.364L525.445 394.692L522.402 383.356L547.532 376.604Z" fill="#F7CC7F"/>
<path d="M437.729 550.712L418.94 552.616L412.533 522.716L384.715 522.107L376.261 500.521L365.328 504.794L376.637 533.676L402.995 534.251L409.667 565.358L437.939 562.491L437.729 550.712Z" fill="#50BFA5"/>
<path d="M403.924 874.953L396.898 892.487L367.442 884.285L353.997 908.65L330.959 906.115L329.676 917.782L360.493 921.181L373.229 898.078L403.869 906.613L414.459 880.222L403.924 874.953Z" fill="#50BFA5"/>
<path d="M453.852 678.815C474.699 698.818 475.396 731.951 455.39 752.807C435.395 773.662 402.276 774.36 381.429 754.345C360.581 734.342 359.884 701.209 379.891 680.353C399.886 659.497 433.004 658.8 453.852 678.815Z" fill="#FFF3D9"/>
<path d="M452.711 722.563L430.459 729.404L423.476 751.633C422.912 753.426 420.533 753.803 419.449 752.253L406.06 733.19L382.778 733.412C380.897 733.434 379.812 731.286 380.941 729.781L394.928 711.15L387.525 689.065C386.927 687.283 388.632 685.589 390.413 686.198L412.444 693.748L431.156 679.877C432.672 678.759 434.807 679.855 434.774 681.737L434.398 705.028L453.364 718.534C454.902 719.629 454.515 721.998 452.711 722.552V722.563Z" fill="#FED333"/>
<path d="M1820.36 765.913C1841.21 785.917 1841.91 819.049 1821.9 839.905C1801.9 860.761 1768.79 861.458 1747.94 841.444C1727.09 821.44 1726.39 788.308 1746.4 767.452C1766.4 746.596 1799.51 745.899 1820.36 765.913Z" fill="#FFF3D9"/>
<path d="M1819.22 809.662L1796.96 816.503L1789.98 838.731C1789.41 840.525 1787.03 840.901 1785.96 839.351L1772.57 820.289L1749.29 820.51C1747.41 820.532 1746.32 818.385 1747.45 816.879L1761.44 798.248L1754.03 776.164C1753.44 774.382 1755.14 772.688 1756.92 773.297L1778.95 780.846L1797.65 766.976C1799.17 765.858 1801.31 766.954 1801.27 768.835L1800.9 792.127L1819.86 805.643C1821.4 806.739 1821.01 809.108 1819.21 809.662H1819.22Z" fill="#FED333"/>
<path d="M1584.3 700.257L1593.44 715.456C1594.43 717.106 1596.88 716.895 1597.58 715.113L1604.08 698.608L1621.35 694.6C1623.22 694.169 1623.78 691.778 1622.3 690.549L1608.61 679.269L1610.14 661.601C1610.31 659.686 1608.2 658.413 1606.59 659.442L1591.64 668.973L1575.31 662.055C1573.54 661.302 1571.68 662.907 1572.16 664.767L1576.61 681.936L1564.99 695.331C1563.73 696.781 1564.68 699.051 1566.6 699.161L1584.29 700.235L1584.3 700.257Z" fill="#F47458"/>
<path d="M1552.2 1048.35C1552.2 1054.21 1547.45 1058.96 1541.6 1058.96C1535.75 1058.96 1531 1054.21 1531 1048.35C1531 1042.5 1535.75 1037.75 1541.6 1037.75C1547.45 1037.75 1552.2 1042.5 1552.2 1048.35Z" fill="#50BFA5"/>
<path d="M311.961 726.991C311.961 732.847 306.826 737.596 300.486 737.596C294.145 737.596 289 732.847 289 726.991C289 721.135 294.145 716.386 300.486 716.386C306.826 716.386 311.961 721.135 311.961 726.991Z" fill="#50BFA5"/>
<path d="M912.257 219.852L926.166 222.597C926.166 222.597 946.504 213.099 948.054 208.516C949.603 203.933 948.895 193.384 951.871 192.72C954.848 192.055 960.801 192.31 963.08 199.317C964.729 204.398 958.986 220.395 960.369 221.856C961.244 222.764 969.189 224.579 975.02 225.797C978.849 226.605 981.914 229.505 982.954 233.346C983.662 235.948 982.489 238.704 980.132 239.966L976.47 241.926L978.185 245.745C979.468 248.59 978.24 251.966 975.44 253.306L972.586 254.678L973.836 256.981C975.452 259.948 974.157 263.689 971.081 265.018L968.58 266.092L968.768 266.778C969.576 269.612 968.104 272.623 965.393 273.708L962.892 274.704L925.845 267.376C922.371 266.689 919.085 265.283 916.174 263.258L903.582 258.486C902.232 257.977 901.457 256.527 901.767 255.088L908.805 222.155C909.148 220.561 910.675 219.531 912.235 219.841L912.257 219.852Z" fill="#96D9C9"/>
</g>
<path d="M1177.19 1299.55V1445H1159.58V1318.01H1158.73L1123.22 1341.59V1323.69L1159.58 1299.55H1177.19Z" fill="#FAFAFD"/>
</g>
<defs>
<linearGradient id="paint0_linear_890_277" x1="990.882" y1="1352.6" x2="990.882" y2="1736.18" gradientUnits="userSpaceOnUse">
<stop stop-color="#F72585"/>
<stop offset="0.504732" stop-color="#CE31C7"/>
<stop offset="1" stop-color="#7241FF"/>
</linearGradient>
<linearGradient id="paint1_linear_890_277" x1="1208.53" y1="1880.2" x2="686.156" y2="1546.76" gradientUnits="userSpaceOnUse">
<stop offset="0.202045" stop-color="#FFAC00"/>
<stop offset="0.526042" stop-color="#F44CE1"/>
<stop offset="1" stop-color="#7461FF"/>
</linearGradient>
<clipPath id="clip0_890_277">
<rect width="2057" height="2057" fill="white"/>
</clipPath>
<clipPath id="clip1_890_277">
<rect width="2877" height="2214" fill="white" transform="translate(-410 -48)"/>
</clipPath>
</defs>
</svg>
