<svg width="100" height="100" viewBox="0 0 100 100" fill="none" xmlns="http://www.w3.org/2000/svg">
<g clip-path="url(#clip0_599_108)">
<rect width="100" height="100" fill="white"/>
<circle cx="50" cy="50" r="50" fill="#1B1A27"/>
<path d="M46.5625 78.4507C45.127 79.0769 44.6486 78.488 44.5289 78.1153L44.5039 59.0001L60.2539 68.2086C55.9992 75.0243 47.9325 77.8531 46.5625 78.4507Z" fill="#E73B65"/>
<path d="M62 60.8376C62 63.338 61.0714 67.2411 60.25 68.2102L37.6927 55.0228C36.4381 54.4861 37.17 53.83 37.6927 53.5691C44.8243 49.3572 59.3564 40.7992 60.4318 40.2625C61.5071 39.7257 61.9253 40.6352 62 41.157V60.8376Z" fill="#2590F2"/>
<path d="M44.5039 42.6513V25.7663C44.5039 24.6033 45.4 24.8344 45.8481 25.0954C50.254 27.63 59.3347 32.8558 60.41 33.482C61.4854 34.1082 60.8581 34.712 60.41 34.9356C56.1908 37.5075 47.4387 42.7855 46.1841 43.3222C44.9296 43.859 44.5412 43.0986 44.5039 42.6513Z" fill="#7561FF"/>
</g>
<defs>
<clipPath id="clip0_599_108">
<rect width="100" height="100" fill="white"/>
</clipPath>
</defs>
</svg>
