<svg width="2057" height="2057" viewBox="0 0 2057 2057" fill="none" xmlns="http://www.w3.org/2000/svg">
<g clip-path="url(#clip0_890_446)">
<rect width="2057" height="2057" fill="white"/>
<g clip-path="url(#clip1_890_446)">
<path d="M2467 -14H-410V2200H2467V-14Z" fill="white"/>
<path d="M1315.7 583.647C1314.43 589.592 1313.29 595.747 1310.19 600.739C1304.87 607.171 1299.85 613.802 1295.08 620.61C1298.36 620.378 1301.66 620.223 1305 620.223C1337.83 620.223 1368.37 631.791 1391 652.779C1411.24 671.543 1422.37 695.598 1422.37 720.517C1422.37 745.435 1411.23 769.479 1391 788.254C1368.36 809.254 1337.82 820.811 1305 820.811C1272.18 820.811 1241.8 809.309 1219.18 788.409C1217.53 793.291 1215.89 798.129 1214.25 802.999C1203.19 808.612 1195.41 821.829 1195.41 837.239C1195.41 857.741 1209.16 874.368 1226.13 874.368C1239.47 874.368 1250.79 864.073 1255.03 849.704C1270.64 854.907 1287.45 857.774 1305 857.774C1386.73 857.774 1452.98 796.313 1452.98 720.506C1452.98 644.698 1392.43 588.728 1315.71 583.636L1315.7 583.647Z" fill="#999999"/>
<path d="M652.089 583.647C653.362 589.592 654.501 595.747 657.6 600.739C662.922 607.171 667.946 613.802 672.715 620.61C669.428 620.378 666.131 620.223 662.789 620.223C629.958 620.223 599.418 631.791 576.789 652.779C556.55 671.543 545.408 695.598 545.408 720.517C545.408 745.435 556.55 769.479 576.789 788.254C599.429 809.254 629.969 820.811 662.789 820.811C695.609 820.811 725.995 809.309 748.612 788.409C750.261 793.291 751.899 798.129 753.536 802.999C764.602 808.612 772.381 821.829 772.381 837.239C772.381 857.741 758.627 874.368 741.663 874.368C728.318 874.368 716.999 864.073 712.749 849.704C697.136 854.907 680.328 857.774 662.778 857.774C581.049 857.774 514.801 796.313 514.801 720.506C514.801 644.698 575.351 588.728 652.067 583.636L652.089 583.647Z" fill="#999999"/>
<path d="M1336.99 568.016V605.909C1336.99 777.173 1198.18 916.046 1026.98 916.046C948.132 914.994 894.033 923.153 819.165 889.998C711.299 842.674 633.643 734.243 633.643 605.909V568.016H1337H1336.99Z" fill="#ABABAB"/>
<path d="M819.165 889.998C819.243 890.032 819.32 890.065 819.398 890.098L930.837 568.005H814.828L725.508 826.213C752.485 852.947 784.243 874.666 819.165 889.987V889.998Z" fill="#C2C2C2"/>
<path d="M891.666 911.74L1009.26 568.016H950.987L838.209 897.725C856.909 904.61 874.459 908.983 891.677 911.729L891.666 911.74Z" fill="#C2C2C2"/>
<path d="M714.21 814.423L802.147 568.016H774.439L694.879 790.966C700.943 799.113 707.394 806.94 714.21 814.423V814.423Z" fill="#C2C2C2"/>
<path d="M1306.28 546.541H666.108C642.738 546.541 623.694 559.548 622.355 575.942H1350.04C1348.7 559.548 1329.64 546.541 1306.28 546.541V546.541Z" fill="#ABABAB"/>
<path d="M866.447 906.979L902.675 1093H1061.07L1105.94 906.979H866.447Z" fill="#ABABAB"/>
<path d="M1105.95 906.991L1095.82 948.968H874.647L866.459 906.991H1105.95Z" fill="#837976"/>
<path d="M1105.95 1323.12H866.459L884.418 1230.79L902.654 1137.1H1061.08L1083.68 1230.79L1105.95 1323.12Z" fill="#ABABAB"/>
<path d="M1105.95 1323.12H866.459L884.418 1230.79H1083.68L1105.95 1323.12Z" fill="#837976"/>
<path d="M874.89 1093H1088.85C1098.28 1093 1105.94 1100.66 1105.94 1110.09V1119.99C1105.94 1129.42 1098.28 1137.09 1088.84 1137.09H874.879C865.452 1137.09 857.783 1129.43 857.783 1119.99V1110.08C857.783 1100.65 865.441 1092.99 874.868 1092.99L874.89 1093Z" fill="#C2C2C2"/>
<path d="M850.634 1249.8H1113.69C1119.16 1249.8 1123.61 1254.23 1123.61 1259.71V1310.55H840.73V1259.71C840.73 1254.25 845.168 1249.8 850.645 1249.8H850.634Z" fill="#ABABAB"/>
<path d="M1217.08 1346.85V1365.32H747.229V1346.85C747.229 1325.55 760.219 1308.27 776.231 1308.27H1188.07C1204.08 1308.27 1217.08 1325.55 1217.08 1346.85Z" fill="#ABABAB"/>
<path d="M857.861 1308.27L842.989 1365.32H823.381L838.253 1308.27H857.861Z" fill="#C2C2C2"/>
<path d="M829.776 1308.27L814.915 1365.32H795.285L810.168 1308.27H829.776Z" fill="#C2C2C2"/>
<path d="M882.813 1308.27L867.952 1365.32H848.322L863.205 1308.27H882.813Z" fill="#C2C2C2"/>
<path d="M1392.02 1787.48V1805.95H604.707V1787.48C604.707 1766.18 626.473 1748.9 653.295 1748.9H1343.42C1370.24 1748.9 1392.01 1766.18 1392.01 1787.48H1392.02Z" fill="#ABABAB"/>
<path d="M790.064 1748.91L765.156 1805.96H732.303L757.211 1748.91H790.064Z" fill="#C2C2C2"/>
<path d="M743.024 1748.91L718.116 1805.96H685.219L710.171 1748.91H743.024Z" fill="#C2C2C2"/>
<path d="M831.89 1748.91L806.981 1805.96H774.084L799.036 1748.91H831.89Z" fill="#C2C2C2"/>
<path d="M1186.76 871.833V885.781C1186.76 909.935 1167.22 929.485 1143.1 929.485H827.719C803.575 929.485 784.033 909.935 784.033 885.781V871.833H1186.76Z" fill="#ABABAB"/>
<path d="M1282.77 1748.91H690.297L697.523 1365.33H1274.83L1282.77 1748.91Z" fill="url(#paint0_linear_890_446)"/>
<path d="M1141.89 1748.91H831.193L834.989 1365.33H1137.72L1141.89 1748.91Z" fill="url(#paint1_linear_890_446)"/>
<path d="M1081.83 1737.37L1034.86 1660.62L965.814 1718.31L1036.85 1285.55L1152.89 1304.61L1081.83 1737.37Z" fill="#786E6B"/>
<path d="M1296.46 1718.09L1227.28 1660.57L1180.47 1737.42L1108.44 1304.84L1224.41 1285.5L1296.46 1718.09Z" fill="#786E6B"/>
<path d="M1392.02 1385.16C1392.02 1410.16 1369.99 1431.38 1362.66 1453.93C1355.07 1477.31 1360.17 1507.37 1346.02 1526.83C1331.73 1546.49 1301.47 1550.86 1281.82 1565.16C1262.37 1579.32 1248.95 1606.84 1225.58 1614.43C1203.02 1621.76 1176.1 1607.62 1151.11 1607.62C1126.11 1607.62 1099.19 1621.75 1076.64 1614.43C1053.26 1606.84 1039.84 1579.32 1020.39 1565.16C1000.75 1550.86 970.485 1546.48 956.188 1526.83C942.036 1507.37 947.137 1477.31 939.546 1453.93C932.221 1431.37 910.189 1410.16 910.189 1385.16C910.189 1360.16 932.221 1338.94 939.546 1316.39C947.137 1293.01 942.036 1262.95 956.188 1243.49C970.485 1223.84 1000.74 1219.46 1020.39 1205.16C1039.84 1191 1053.26 1163.48 1076.64 1155.89C1099.19 1148.56 1126.11 1162.7 1151.09 1162.7C1176.08 1162.7 1203.01 1148.57 1225.56 1155.9C1248.93 1163.49 1262.36 1191.01 1281.81 1205.17C1301.45 1219.47 1331.71 1223.85 1346.01 1243.5C1360.16 1262.96 1355.06 1293.02 1362.65 1316.4C1369.98 1338.96 1392.01 1360.17 1392.01 1385.17L1392.02 1385.16Z" fill="#958E8D"/>
<path d="M1211.13 1599.05C1203.55 1599.05 1194.75 1597.12 1185.42 1595.07C1174.41 1592.64 1163.01 1590.14 1151.1 1590.14C1139.2 1590.14 1127.8 1592.64 1116.78 1595.07C1107.45 1597.12 1098.64 1599.05 1091.06 1599.05C1087.58 1599.05 1084.64 1598.64 1082.03 1597.8C1072.4 1594.67 1063.77 1584.86 1054.61 1574.47C1047.37 1566.23 1039.88 1557.73 1030.68 1551.03C1021.35 1544.25 1010.86 1539.67 1000.72 1535.26C988.09 1529.77 976.172 1524.58 970.33 1516.55C964.587 1508.66 963.325 1495.77 961.986 1482.12C960.902 1471.05 959.773 1459.61 956.188 1448.54C952.736 1437.9 947.026 1428.27 941.504 1418.95C934.4 1406.96 927.684 1395.62 927.684 1385.16C927.684 1374.7 934.4 1363.37 941.504 1351.39C947.026 1342.06 952.736 1332.43 956.188 1321.8C959.784 1310.71 960.913 1299.27 961.997 1288.2C963.336 1274.56 964.598 1261.66 970.341 1253.78C976.183 1245.76 988.101 1240.56 1000.73 1235.07C1010.87 1230.66 1021.37 1226.1 1030.7 1219.3C1039.9 1212.6 1047.4 1204.09 1054.64 1195.86C1063.79 1185.47 1072.43 1175.65 1082.06 1172.53C1084.65 1171.69 1087.6 1171.28 1091.09 1171.28C1098.67 1171.28 1107.47 1173.21 1116.8 1175.26C1127.82 1177.69 1139.21 1180.19 1151.13 1180.19C1163.04 1180.19 1174.43 1177.69 1185.45 1175.26C1194.78 1173.21 1203.59 1171.28 1211.17 1171.28C1214.65 1171.28 1217.61 1171.69 1220.2 1172.53C1229.83 1175.66 1238.48 1185.48 1247.62 1195.87C1254.86 1204.1 1262.36 1212.61 1271.55 1219.31C1280.88 1226.1 1291.37 1230.67 1301.52 1235.08C1314.14 1240.57 1326.06 1245.77 1331.9 1253.79C1337.64 1261.69 1338.91 1274.57 1340.25 1288.22C1341.33 1299.29 1342.46 1310.74 1346.04 1321.81C1349.5 1332.44 1355.21 1342.09 1360.73 1351.4C1367.83 1363.39 1374.55 1374.72 1374.55 1385.17C1374.55 1395.62 1367.83 1406.96 1360.73 1418.96C1355.21 1428.27 1349.5 1437.91 1346.04 1448.55C1342.45 1459.63 1341.32 1471.07 1340.23 1482.13C1338.9 1495.77 1337.63 1508.67 1331.89 1516.56C1326.05 1524.6 1314.13 1529.78 1301.51 1535.27C1291.36 1539.69 1280.86 1544.25 1271.53 1551.04C1262.33 1557.74 1254.84 1566.25 1247.59 1574.48C1238.44 1584.87 1229.8 1594.69 1220.17 1597.81C1217.59 1598.66 1214.63 1599.07 1211.15 1599.07L1211.13 1599.05Z" fill="#ABABAB"/>
<path d="M1324.91 1409.49C1338.34 1313.46 1271.4 1224.72 1175.41 1211.3C1079.42 1197.87 990.723 1264.83 977.301 1360.86C963.879 1456.89 1030.81 1545.62 1126.8 1559.05C1222.79 1572.48 1311.49 1505.52 1324.91 1409.49Z" fill="#958E8D"/>
<path d="M1151.11 1551.97C1243.2 1551.97 1317.85 1477.29 1317.85 1385.16C1317.85 1293.03 1243.2 1218.35 1151.11 1218.35C1059.02 1218.35 984.361 1293.03 984.361 1385.16C984.361 1477.29 1059.02 1551.97 1151.11 1551.97Z" fill="white"/>
<path d="M1301.57 1400.08C1309.79 1316.96 1249.1 1242.91 1166.02 1234.69C1082.93 1226.46 1008.91 1287.18 1000.69 1370.3C992.472 1453.42 1053.16 1527.47 1136.25 1535.69C1219.34 1543.92 1293.35 1483.2 1301.57 1400.08Z" fill="#ABABAB"/>
<path d="M1405.92 979.51C1405.92 979.51 1372.82 984.613 1348.38 1009C1323.94 1033.39 1309.33 1072.55 1309.33 1072.55L1359.39 1087.15C1359.39 1087.15 1339.38 1040.46 1405.92 979.499V979.51Z" fill="#C2C2C2"/>
<path d="M1415.08 1003.53L1411.5 975.326L1386.23 962.296C1383.36 960.813 1383.43 956.673 1386.35 955.289L1412.06 943.156L1416.64 915.094C1417.16 911.895 1421.12 910.688 1423.34 913.046L1442.81 933.758L1470.91 929.452C1474.1 928.965 1476.48 932.352 1474.92 935.197L1461.26 960.127L1474.04 985.521C1475.49 988.411 1473 991.721 1469.82 991.112L1441.89 985.809L1421.7 1005.81C1419.4 1008.09 1415.48 1006.74 1415.07 1003.53H1415.08Z" fill="#ABABAB"/>
<path d="M535.117 1129.66C535.117 1129.66 568.213 1134.77 592.657 1159.15C617.1 1183.54 631.695 1222.71 631.695 1222.71L581.635 1237.31C581.635 1237.31 601.642 1190.61 535.105 1129.65L535.117 1129.66Z" fill="#C2C2C2"/>
<path d="M525.944 1153.7L529.529 1125.49L554.792 1112.46C557.669 1110.98 557.591 1106.84 554.67 1105.45L528.965 1093.32L524.384 1065.26C523.864 1062.06 519.902 1060.85 517.689 1063.21L498.214 1083.92L470.119 1079.62C466.921 1079.13 464.542 1082.52 466.102 1085.36L479.768 1110.29L466.988 1135.69C465.527 1138.58 468.028 1141.89 471.204 1141.28L499.122 1135.97L519.316 1155.98C521.617 1158.26 525.535 1156.91 525.944 1153.7V1153.7Z" fill="#ABABAB"/>
<path d="M1629.8 1004.15L1637.55 991.067L1631.17 977.274C1630.44 975.702 1631.83 973.975 1633.51 974.363L1648.34 977.684L1659.48 967.344C1660.75 966.171 1662.82 966.957 1662.98 968.684L1664.41 983.816L1677.67 991.222C1679.19 992.064 1679.08 994.278 1677.49 994.964L1663.54 1001L1660.6 1015.91C1660.27 1017.6 1658.13 1018.19 1656.98 1016.88L1646.93 1005.48L1631.85 1007.3C1630.14 1007.51 1628.92 1005.65 1629.8 1004.15Z" fill="#466EB6"/>
<path d="M882.826 412.394L892.597 395.889L884.541 378.487C883.622 376.505 885.382 374.325 887.506 374.812L906.218 379.007L920.271 365.967C921.875 364.483 924.476 365.48 924.686 367.649L926.479 386.745L943.221 396.088C945.124 397.151 944.991 399.94 942.977 400.815L925.383 408.42L921.676 427.239C921.256 429.387 918.556 430.106 917.117 428.468L904.447 414.077L885.415 416.357C883.246 416.623 881.719 414.276 882.837 412.394H882.826Z" fill="#F79C8D"/>
<path d="M1599.7 453.386L1573.9 470.6L1588.32 495.652L1563.67 513.74L1574.5 539.378L1558.26 555.928L1566.63 564.153L1588.35 542.013L1578.09 517.714L1603.73 498.906L1589.56 474.264L1612.93 458.667L1599.7 453.386Z" fill="#F48C7F"/>
<path d="M1639.31 868.379L1621.06 843.294L1596.63 858.725L1577.57 834.814L1552.4 846.681L1535.21 831.128L1527.34 839.829L1550.32 860.641L1574.18 849.393L1594.01 874.268L1618.04 859.091L1634.56 881.817L1639.31 868.379Z" fill="#F48C7F"/>
<path d="M784.277 348.919L790.474 318.521L762.6 310.893L767.38 280.694L741.642 270.112L741.52 246.92L729.791 246.986L729.946 278.004L754.334 288.023L749.366 319.451L776.775 326.945L771.164 354.487L784.277 348.919Z" fill="#F48C7F"/>
<path d="M543.184 389.335L554.991 411.387L580.441 409.97L591.927 435.619L618.573 425.734L632.836 454.172L658.497 448.095L676.688 473.213L667.194 480.109L653.583 461.324L626.507 467.733L612.797 440.401L585.708 450.453L573.039 422.136L548.175 423.531L537.231 403.095L521.098 407.424L518.055 396.088L543.184 389.335Z" fill="#ABABAB"/>
<path d="M433.381 563.444L414.592 565.348L408.185 535.448L380.367 534.839L371.913 513.253L360.98 517.526L372.289 546.408L398.647 546.983L405.319 578.09L433.592 575.223L433.381 563.444Z" fill="#50BFA5"/>
<path d="M399.577 887.685L392.55 905.219L363.094 897.017L349.65 921.382L326.612 918.847L325.328 930.514L356.145 933.913L368.881 910.81L399.522 919.345L410.111 892.954L399.577 887.685Z" fill="#50BFA5"/>
<path d="M449.504 691.546C470.351 711.55 471.048 744.682 451.042 765.538C431.047 786.394 397.928 787.091 377.081 767.077C356.234 747.073 355.537 713.941 375.543 693.085C395.538 672.229 428.657 671.531 449.504 691.546Z" fill="#FFF3D9"/>
<path d="M448.363 735.294L426.111 742.136L419.129 764.364C418.564 766.158 416.185 766.534 415.101 764.984L401.712 745.922L378.43 746.143C376.549 746.165 375.465 744.018 376.593 742.512L390.58 723.881L383.177 701.797C382.58 700.014 384.284 698.321 386.065 698.93L408.097 706.479L426.808 692.609C428.324 691.49 430.46 692.586 430.427 694.468L430.05 717.76L449.016 731.265C450.554 732.361 450.167 734.73 448.363 735.283V735.294Z" fill="#FED333"/>
<path d="M1816.01 778.645C1836.86 798.649 1837.56 831.781 1817.55 852.637C1797.56 873.493 1764.44 874.19 1743.59 854.176C1722.74 834.172 1722.05 801.04 1742.05 780.184C1762.05 759.328 1795.17 758.631 1816.01 778.645Z" fill="#FFF3D9"/>
<path d="M1814.87 822.394L1792.61 829.235L1785.63 851.463C1785.06 853.257 1782.68 853.633 1781.61 852.083L1768.22 833.021L1744.94 833.242C1743.06 833.264 1741.97 831.117 1743.1 829.611L1757.09 810.98L1749.69 788.896C1749.09 787.113 1750.79 785.42 1752.58 786.029L1774.61 793.578L1793.31 779.708C1794.82 778.59 1796.96 779.685 1796.93 781.567L1796.55 804.859L1815.52 818.375C1817.05 819.471 1816.67 821.84 1814.86 822.394H1814.87Z" fill="#FED333"/>
<path d="M1579.96 712.989L1589.1 728.188C1590.08 729.837 1592.54 729.627 1593.23 727.845L1599.73 711.339L1617 707.332C1618.87 706.9 1619.44 704.509 1617.95 703.28L1604.27 692L1605.79 674.332C1605.96 672.417 1603.86 671.144 1602.24 672.174L1587.29 681.705L1570.96 674.786C1569.19 674.033 1567.33 675.639 1567.82 677.498L1572.27 694.668L1560.65 708.063C1559.39 709.513 1560.34 711.782 1562.25 711.893L1579.94 712.967L1579.96 712.989Z" fill="#F47458"/>
<path d="M1547.85 1061.08C1547.85 1066.94 1543.11 1071.69 1537.25 1071.69C1531.4 1071.69 1526.65 1066.94 1526.65 1061.08C1526.65 1055.23 1531.4 1050.48 1537.25 1050.48C1543.11 1050.48 1547.85 1055.23 1547.85 1061.08Z" fill="#50BFA5"/>
<path d="M307.613 739.723C307.613 745.579 302.479 750.328 296.138 750.328C289.798 750.328 284.652 745.579 284.652 739.723C284.652 733.867 289.798 729.118 296.138 729.118C302.479 729.118 307.613 733.867 307.613 739.723Z" fill="#50BFA5"/>
<path d="M907.909 232.584L921.819 235.329C921.819 235.329 942.157 225.831 943.706 221.248C945.255 216.665 944.547 206.116 947.523 205.452C950.5 204.787 956.453 205.042 958.733 212.049C960.381 217.13 954.639 233.127 956.022 234.588C956.896 235.495 964.841 237.311 970.672 238.529C974.501 239.337 977.566 242.237 978.606 246.078C979.314 248.68 978.141 251.436 975.785 252.698L972.122 254.658L973.837 258.477C975.121 261.322 973.892 264.698 971.093 266.038L968.238 267.41L969.488 269.713C971.104 272.68 969.809 276.421 966.733 277.75L964.232 278.823L964.42 279.51C965.228 282.344 963.757 285.355 961.045 286.44L958.545 287.436L921.498 280.108C918.023 279.421 914.737 278.015 911.827 275.99L899.234 271.218C897.884 270.709 897.11 269.259 897.42 267.82L904.457 234.887C904.8 233.293 906.327 232.263 907.887 232.573L907.909 232.584Z" fill="#96D9C9"/>
<path d="M1105.06 1458V1445.22L1153.07 1392.66C1158.7 1386.5 1163.34 1381.15 1166.99 1376.61C1170.63 1372.02 1173.33 1367.71 1175.09 1363.68C1176.88 1359.61 1177.78 1355.35 1177.78 1350.9C1177.78 1345.78 1176.55 1341.36 1174.09 1337.62C1171.68 1333.88 1168.36 1330.99 1164.15 1328.95C1159.93 1326.92 1155.2 1325.9 1149.94 1325.9C1144.36 1325.9 1139.48 1327.06 1135.31 1329.38C1131.19 1331.65 1128 1334.85 1125.72 1338.97C1123.5 1343.09 1122.39 1347.91 1122.39 1353.45H1105.62C1105.62 1344.93 1107.59 1337.45 1111.52 1331.01C1115.45 1324.57 1120.8 1319.55 1127.57 1315.95C1134.39 1312.36 1142.04 1310.56 1150.51 1310.56C1159.03 1310.56 1166.59 1312.36 1173.17 1315.95C1179.75 1319.55 1184.91 1324.41 1188.65 1330.51C1192.39 1336.62 1194.26 1343.42 1194.26 1350.9C1194.26 1356.25 1193.29 1361.48 1191.35 1366.59C1189.46 1371.66 1186.14 1377.32 1181.41 1383.57C1176.72 1389.77 1170.21 1397.35 1161.88 1406.3L1129.2 1441.24V1442.38H1196.82V1458H1105.06Z" fill="#FAFAFD"/>
</g>
<path d="M1173.72 239.761C1176.9 232.105 1180.14 224.436 1188.39 220.559C1195.07 217.419 1202.04 218.6 1207.98 223.067C1224.79 235.711 1210.14 249.646 1229.28 273.627C1235.23 281.081 1242.42 287.097 1245.99 295.822C1250.98 308.042 1245.04 313.912 1235.52 319.768C1189.96 347.771 1166.08 290.272 1166.94 277.121C1167.58 267.333 1171.68 244.693 1173.72 239.768L1173.72 239.761Z" fill="#13375B"/>
<path d="M1146.29 494.754C1148.53 504.918 1152.07 513.803 1152.55 514.852C1152.78 515.352 1154.87 517.144 1155.12 517.658C1154.46 530.17 1146.78 537.853 1139.5 543.39C1140.9 537.047 1144.25 529.704 1143.74 528.322C1142.92 526.12 1139.69 516.054 1133.11 503.487C1139.29 502.57 1141.37 498.721 1146.3 494.761L1146.29 494.754Z" fill="#F7A491"/>
<path d="M1174.41 346.174L1213.19 375.636C1213.19 375.636 1193.98 394.115 1186.78 400.978C1179.57 407.849 1135.13 439.825 1134.5 441.395C1134.04 442.562 1144.61 479.326 1151.44 498.951C1147.34 503.14 1138.31 507.252 1132.97 508.607C1119.52 482.945 1103 439.152 1103 433.205C1103 423.521 1174.41 346.167 1174.41 346.167V346.174Z" fill="#333333"/>
<path d="M1283.2 404.944C1281.93 406.181 1273.51 422.582 1270.31 431.363C1265.62 428.411 1262.79 424.889 1257.54 422.902C1261.68 416.921 1269.74 402.527 1270.4 399.095C1271.97 390.967 1273.82 389.765 1273.82 389.765C1273.82 389.765 1301.07 398.984 1302.88 401.568C1304.7 404.152 1288.3 399.97 1283.2 404.937V404.944Z" fill="#F7A491"/>
<path d="M1270.09 400.908C1267.98 400.908 1270.27 391.356 1270.76 389.154C1271.31 386.681 1272.74 385.938 1273.09 385.847C1274.06 385.611 1304.34 395.858 1309.45 399.533C1309.8 399.783 1310.42 400.568 1310.52 400.748C1313.32 405.979 1288.35 406.973 1284.76 404.687C1281.57 402.652 1279.59 400.88 1270.08 400.908H1270.09Z" fill="#3C8F7C"/>
<path d="M1166.12 354.871C1166.12 354.871 1199.97 341.193 1199.97 341.193C1199.84 341.255 1200.18 342.568 1200.2 342.673C1203.38 355.038 1220.32 350.266 1227.31 371.738C1232.25 386.911 1239.49 443.653 1239.49 443.653C1239.49 443.653 1244.62 433.899 1260.55 415.949C1261.78 414.559 1277.47 425.334 1277.47 425.334C1265.8 456.275 1237.14 481.416 1233.27 479.638C1207.05 467.613 1175.57 372.704 1175.61 372.711C1172.63 366.903 1166.13 354.864 1166.13 354.864L1166.12 354.871Z" fill="#333333"/>
<path d="M1164.88 254.995C1164.88 254.995 1149 229.855 1146.24 221.49C1143.48 213.133 1146.22 173.293 1146.48 170.465C1146.74 167.631 1156.33 159.899 1154.83 157.669C1153.31 155.446 1140.06 153.633 1137.84 154.064C1135.62 154.494 1131.3 154.098 1129.53 155.891C1129.3 156.127 1133.74 166.61 1133.65 168.235C1133.02 179.337 1126.72 214.676 1128.78 224.228C1131.16 235.218 1154.74 270.327 1154.74 270.327L1164.88 254.982L1164.88 254.995Z" fill="#F7A491"/>
<path d="M1222.54 269.64C1222.54 269.64 1265.01 270.696 1274.34 271.46C1283.67 272.224 1317.51 269.41 1318.82 269.257C1320.13 269.105 1328.8 254.426 1330.24 256.003C1331.68 257.58 1325.42 263.283 1327.35 264.763C1329.29 266.243 1350.1 262.929 1349.82 264.471C1349.31 267.347 1337.16 266.986 1337.17 268.375C1337.18 269.765 1349.88 267.597 1350.74 269.904C1351.6 272.21 1338.53 270.848 1338.01 271.876C1337.49 272.905 1350.14 274.794 1348.84 276.941C1348.14 278.108 1337.64 274.996 1337.68 276.587C1337.73 278.177 1345.4 281.79 1344.46 283.054C1343.52 284.318 1338.44 279.171 1334 279.108C1329.55 279.046 1326.36 276.725 1319.27 278.671C1312.17 280.616 1287.98 290.376 1272.84 289.654C1257.69 288.938 1224.23 287.445 1224.23 287.445L1222.53 269.653L1222.54 269.64Z" fill="#F7A491"/>
<path d="M1160.19 313.996C1159.61 306.987 1158.63 288.084 1158.94 285.757C1156.83 278.476 1149.09 267.688 1147.47 264.638C1147.47 264.638 1157.96 252.752 1165.73 252.856C1165.73 252.856 1174 263.304 1180.14 266.507C1180.23 266.486 1182.32 267.438 1183.23 267.431C1189.17 267.389 1209.88 266.764 1213.75 267.917L1211.56 299.935C1210.45 301.769 1209.09 338.588 1206.8 341.617C1204.51 344.646 1171.16 358.442 1165.63 354.886C1165.41 354.747 1161.35 328.168 1160.18 314.003L1160.19 313.996Z" fill="#2590F2"/>
<path d="M1202.97 268.66C1206.79 266.833 1234.71 266.895 1234.71 266.895C1234.71 266.895 1238.57 286.152 1235.45 290.786C1235.45 290.786 1210.72 294.468 1211.42 296.496L1202.96 268.667L1202.97 268.66Z" fill="#2590F2"/>
<path d="M1196.76 255.642C1196.76 255.642 1194.61 266.75 1195.04 271.133C1195.48 275.517 1193.41 289.633 1184.13 289.682C1174.86 289.73 1182.37 271.731 1183.24 267.438C1184.12 263.144 1184.32 249.855 1184.32 249.855L1196.75 255.649L1196.76 255.642Z" fill="#F7A491"/>
<path d="M1184.13 256.517C1184.28 252.883 1184.33 249.848 1184.33 249.848L1196.76 255.641C1196.76 255.641 1196.32 257.913 1195.88 260.81C1190.44 261.9 1186.49 259.886 1184.13 256.517Z" fill="#F47458"/>
<path d="M1201.31 224.985C1201.31 224.985 1206.1 227.646 1207.85 233.405C1209.6 239.164 1207.61 254.037 1195.23 257.622C1182.85 261.213 1177.49 249.438 1180.04 240.234C1182.59 231.029 1188.13 219.372 1201.31 224.985V224.985Z" fill="#F7A491"/>
<path d="M1178.49 236.67C1178.74 239.143 1180.1 241.032 1181.54 240.893C1182.98 240.754 1183.95 238.636 1183.71 236.163C1183.47 233.689 1182.1 231.8 1180.66 231.939C1179.22 232.078 1178.25 234.197 1178.49 236.67Z" fill="#F7A491"/>
<path d="M1152.66 515.15C1153.37 513.163 1161.48 519.144 1163.38 520.346C1165.52 521.701 1165.74 523.299 1165.7 523.667C1165.59 524.632 1146.37 550.051 1140.62 553.671C1140.08 554.011 1138.91 554.06 1138.56 553.942C1135.26 552.795 1139.87 532.385 1144.01 528.238C1146.68 525.556 1149.45 524.098 1152.66 515.143V515.15Z" fill="#3C8F7C"/>
<path d="M1154.59 158.024C1155.86 159.892 1148.97 165.811 1147.06 169.076L1142.73 163.178C1144.87 162.761 1153.14 155.884 1154.59 158.017V158.024Z" fill="#F7A491"/>
<path d="M1199.85 224.234C1199.85 224.234 1202.09 240.824 1207.46 243.811C1212.82 246.805 1210.57 254.162 1210.57 254.162C1210.57 254.162 1215.44 237.079 1211.2 231.591C1206.96 226.103 1199.85 224.234 1199.85 224.234V224.234Z" fill="#13375B"/>
<path d="M1204.28 246.193C1202.83 248.354 1202.83 250.903 1204.29 251.883C1205.75 252.862 1208.11 251.911 1209.57 249.75C1211.03 247.59 1211.03 245.04 1209.56 244.061C1208.1 243.074 1205.74 244.033 1204.28 246.193Z" fill="#F7A491"/>
<path d="M1144.18 159.413C1144.21 159.455 1144.25 159.49 1144.27 159.531L1145.84 161.574C1144.69 161.261 1142.49 160.643 1140.35 162.102C1140.35 162.102 1141.06 160.587 1144.18 159.413V159.413Z" fill="#F47257"/>
<path d="M1136.96 165.72L1133.38 137.514L1108.11 124.484C1105.24 123.001 1105.31 118.861 1108.24 117.477L1133.94 105.344L1138.52 77.2819C1139.04 74.0827 1143 72.8761 1145.22 75.234L1164.69 95.946L1192.79 91.6398C1195.98 91.1527 1198.36 94.5401 1196.8 97.3851L1183.14 122.315L1195.92 147.709C1197.37 150.599 1194.88 153.909 1191.7 153.3L1163.77 147.997L1143.58 168.001C1141.28 170.281 1137.36 168.93 1136.95 165.72H1136.96Z" fill="#ABABAB"/>
</g>
<defs>
<linearGradient id="paint0_linear_890_446" x1="986.534" y1="1365.33" x2="986.534" y2="1748.91" gradientUnits="userSpaceOnUse">
<stop stop-color="#F72585"/>
<stop offset="0.504732" stop-color="#CE31C7"/>
<stop offset="1" stop-color="#7241FF"/>
</linearGradient>
<linearGradient id="paint1_linear_890_446" x1="1204.18" y1="1892.93" x2="681.808" y2="1559.49" gradientUnits="userSpaceOnUse">
<stop offset="0.202045" stop-color="#FFAC00"/>
<stop offset="0.526042" stop-color="#F44CE1"/>
<stop offset="1" stop-color="#7461FF"/>
</linearGradient>
<clipPath id="clip0_890_446">
<rect width="2057" height="2057" fill="white"/>
</clipPath>
<clipPath id="clip1_890_446">
<rect width="2877" height="2214" fill="white" transform="translate(-410 -14)"/>
</clipPath>
</defs>
</svg>
