<?xml version="1.0" standalone="no"?>
<!DOCTYPE svg PUBLIC "-//W3C//DTD SVG 20010904//EN"
 "http://www.w3.org/TR/2001/REC-SVG-20010904/DTD/svg10.dtd">
<svg version="1.0" xmlns="http://www.w3.org/2000/svg"
 width="1109.000000pt" height="1109.000000pt" viewBox="0 0 1109.000000 1109.000000"
 preserveAspectRatio="xMidYMid meet">
<metadata>
Created by potrace 1.14, written by Peter Selinger 2001-2017
</metadata>
<g transform="translate(0.000000,1109.000000) scale(0.100000,-0.100000)"
fill="#000000" stroke="none">
<path d="M4602 11070 c-70 -44 -65 101 -66 -1885 l0 -1790 21 -40 c27 -50 56
-75 107 -90 91 -27 185 2 401 123 77 43 163 91 190 106 115 64 952 557 1070
630 28 17 59 36 70 43 11 6 86 51 168 100 81 48 155 93 165 98 9 6 58 35 107
65 50 30 101 62 116 70 14 8 73 44 132 80 59 36 120 72 135 81 15 9 88 54 162
99 74 46 212 129 305 186 201 123 197 120 224 164 26 43 27 76 1 117 -19 31
-89 88 -140 115 -23 12 -111 63 -690 398 -107 62 -220 126 -250 143 -30 17
-104 60 -165 95 -60 35 -135 78 -165 95 -30 16 -66 38 -80 47 -14 9 -38 24
-55 32 -16 9 -113 64 -215 123 -102 59 -205 119 -230 133 -25 14 -88 50 -140
80 -247 143 -417 241 -670 387 -340 197 -352 203 -420 210 -45 5 -61 2 -88
-15z"/>
<path d="M7820 7936 c-63 -25 -218 -113 -725 -409 -198 -115 -373 -218 -390
-227 -39 -23 -356 -207 -375 -219 -8 -5 -98 -58 -199 -118 -101 -59 -204 -120
-230 -136 -25 -15 -64 -37 -86 -48 -22 -12 -42 -24 -45 -28 -3 -3 -21 -15 -40
-26 -19 -10 -51 -28 -71 -40 -20 -11 -59 -33 -85 -49 -27 -15 -69 -40 -94 -53
-25 -14 -52 -32 -61 -39 -8 -8 -19 -14 -23 -14 -3 0 -23 -11 -44 -24 -20 -13
-165 -99 -322 -191 -157 -92 -339 -200 -405 -239 -66 -39 -132 -78 -146 -86
-48 -28 -274 -161 -289 -171 -22 -13 -222 -131 -245 -143 -11 -6 -110 -65
-220 -130 -413 -245 -581 -345 -622 -367 -83 -47 -133 -108 -133 -162 0 -26
55 -97 75 -97 7 0 15 -3 17 -7 1 -5 26 -20 53 -34 28 -14 102 -56 165 -93 63
-38 135 -80 160 -93 25 -14 52 -32 61 -39 8 -8 18 -14 21 -14 3 0 36 -18 73
-41 37 -22 82 -49 99 -58 17 -10 117 -69 221 -131 105 -62 206 -121 225 -132
162 -93 348 -204 359 -214 12 -11 14 -312 14 -1976 -1 -2146 -5 -1993 55
-2045 30 -25 101 -44 152 -39 53 4 142 33 223 70 39 19 88 41 107 49 213 91
557 264 770 386 156 90 467 293 570 371 105 80 229 178 261 205 19 16 64 55
100 85 69 59 363 350 419 415 130 150 237 289 337 440 76 114 96 147 164 273
16 28 43 78 60 110 106 191 152 285 197 394 44 107 103 287 116 352 3 12 11
53 20 92 8 38 18 92 22 120 3 27 10 72 14 99 5 28 9 1004 9 2171 1 2291 4
2153 -50 2236 -53 81 -141 105 -239 64z"/>
</g>
</svg>
